<?xml version="1.0" encoding="UTF-8"?>
<svg xmlns="http://www.w3.org/2000/svg" xmlns:xlink="http://www.w3.org/1999/xlink" viewBox="0 0 48 48" width="48px" height="48px">
<g id="surface68895030">
<path style=" stroke:none;fill-rule:nonzero;fill:rgb(2.352941%,30.588236%,23.137255%);fill-opacity:1;" d="M 34 25 L 14 25 C 13.398438 25 13 24.601562 13 24 C 13 23.398438 13.398438 23 14 23 L 22.101562 23 L 23 10.898438 C 23 10.398438 23.5 10 24 10 C 24.5 10 25 10.398438 25 10.898438 L 25.898438 23 L 34 23 C 34.601562 23 35 23.398438 35 24 C 35 24.601562 34.601562 25 34 25 Z M 34 25 "/>
<path style=" stroke:none;fill-rule:nonzero;fill:rgb(20.392157%,82.745099%,60.000002%);fill-opacity:1;" d="M 18 30 L 18 32 C 18 32.300781 17.898438 32.5 17.699219 32.699219 C 17.5 32.898438 17.300781 33 17 33 C 16.699219 33 8.5 32.699219 0.601562 28.898438 C 0.101562 28.699219 -0.101562 28.199219 0.101562 27.699219 C 0.300781 27.199219 0.699219 26.898438 1.199219 27 C 1.300781 27 11.5 29 17 29 C 17.601562 29 18 29.398438 18 30 Z M 47.898438 27.699219 C 47.699219 27.199219 47.300781 26.898438 46.800781 27 C 46.699219 27 36.5 29 31 29 C 30.398438 29 30 29.398438 30 30 L 30 32 C 30 32.300781 30.101562 32.5 30.300781 32.699219 C 30.5 32.898438 30.699219 33 31 33 C 31.300781 33 39.5 32.699219 47.398438 28.898438 C 47.898438 28.699219 48.101562 28.199219 47.898438 27.699219 Z M 47.898438 27.699219 "/>
<path style=" stroke:none;fill-rule:nonzero;fill:rgb(2.352941%,37.254903%,27.450982%);fill-opacity:1;" d="M 27 36 L 21 36 C 18.800781 36 17 34.199219 17 32 L 17 29 C 17 27.398438 18.398438 26 20 26 L 28 26 C 29.601562 26 31 27.398438 31 29 L 31 32 C 31 34.199219 29.199219 36 27 36 Z M 27 36 "/>
<path style=" stroke:none;fill-rule:nonzero;fill:rgb(81.960785%,98.039216%,89.803922%);fill-opacity:1;" d="M 13 33.5 C 13 35.398438 11.398438 37 9.5 37 C 7.601562 37 6 35.398438 6 33.5 C 6 31.601562 7.601562 30 9.5 30 C 11.398438 30 13 31.601562 13 33.5 Z M 24 22 C 20.101562 22 17 25.101562 17 29 C 17 32.898438 22.300781 36 24 36 C 25.699219 36 31 32.898438 31 29 C 31 25.101562 27.898438 22 24 22 Z M 35 33.5 C 35 35.398438 36.601562 37 38.5 37 C 40.398438 37 42 35.398438 42 33.5 C 42 31.601562 40.398438 30 38.5 30 C 36.601562 30 35 31.601562 35 33.5 Z M 35 33.5 "/>
<path style=" stroke:none;fill-rule:nonzero;fill:rgb(2.352941%,30.588236%,23.137255%);fill-opacity:1;" d="M 38.5 31 C 39.898438 31 41 32.101562 41 33.5 C 41 34.898438 39.898438 36 38.5 36 C 37.101562 36 36 34.898438 36 33.5 C 36 32.101562 37.101562 31 38.5 31 Z M 9.5 31 C 8.101562 31 7 32.101562 7 33.5 C 7 34.898438 8.101562 36 9.5 36 C 10.898438 36 12 34.898438 12 33.5 C 12 32.101562 10.898438 31 9.5 31 Z M 9.5 31 "/>
<path style=" stroke:none;fill-rule:nonzero;fill:rgb(2.352941%,30.588236%,23.137255%);fill-opacity:1;" d="M 25 25 L 26.699219 25 C 27.5 25 28.199219 25.398438 28.601562 26.199219 L 29 27 L 25 27 Z M 23 25 L 21.300781 25 C 20.5 25 19.800781 25.398438 19.398438 26.199219 L 19 27 L 23 27 Z M 23 25 "/>
<path style=" stroke:none;fill-rule:nonzero;fill:rgb(6.27451%,72.549021%,50.588238%);fill-opacity:1;" d="M 30.898438 28.199219 C 29.101562 29.199219 26 31 24 31 C 22 31 18.898438 29.199219 17.101562 28.199219 C 17.101562 28.5 17 28.800781 17 29 C 17 32.898438 21.398438 36 24 36 C 26.601562 36 31 32.898438 31 29 C 31 28.699219 31 28.398438 30.898438 28.199219 Z M 30.898438 28.199219 "/>
</g>
</svg>
