<svg width="320" height="321" viewBox="0 0 320 321" fill="none" xmlns="http://www.w3.org/2000/svg">
<rect width="320" height="320" rx="65" fill="url(#paint0_linear_71_83)"/>
<path d="M292.375 63L249 320H198C198 320 176.5 320 152 320C147.5 320 120.5 320 113 320C66.9455 320.242 41.9361 324.603 19.5 301.5L15.5 297.25L12 292.5C18.104 288.014 43.3629 274.285 49.6875 268.917C62.7044 257.959 73.2208 247.516 80.7956 239.5C87.7821 232.146 92.1946 226.777 93.8125 224.792C129.774 180.961 172.87 102.786 188.534 78.8115C190.667 75.5021 195.594 67.9273 204.787 64.6915C207.876 63.5883 211.185 63 214.568 63H292.375Z" fill="url(#paint1_linear_71_83)"/>
<path d="M292.375 63L249 320H198C198 320 176.5 320 152 320C147.5 320 120.5 320 113 320C66.9455 320.242 41.9361 324.603 19.5 301.5L15.5 297.25L12 292.5C18.104 288.014 43.3629 274.285 49.6875 268.917C62.7044 257.959 73.2208 247.516 80.7956 239.5C87.7821 232.146 92.1946 226.777 93.8125 224.792C129.774 180.961 172.87 102.786 188.534 78.8115C190.667 75.5021 195.594 67.9273 204.787 64.6915C207.876 63.5883 211.185 63 214.568 63H292.375Z" fill="url(#paint2_linear_71_83)"/>
<path d="M292.375 63.5L249 320.5H198C198 320.5 176.5 320.5 152 320.5C147.5 320.5 120.5 320.5 113 320.5C66.9459 319.88 41.9294 324.207 19.5 302L15.5 297.75L12 293C18.104 288.514 43.3629 274.785 49.6875 269.417C62.7044 258.459 73.2208 248.016 80.7956 240C87.7821 232.646 92.1946 227.277 93.8125 225.292C129.774 181.461 172.87 103.286 188.534 79.3115C190.667 76.0021 195.594 68.4273 204.787 65.1915C207.876 64.0883 211.185 63.5 214.568 63.5H292.375Z" fill="url(#paint3_linear_71_83)"/>
<path d="M292.375 63.5L249 320.5H198C198 320.5 176.5 320.5 152 320.5C147.5 320.5 120.5 320.5 113 320.5C66.9459 319.88 41.9294 324.207 19.5 302L15.5 297.75L12 293C18.104 288.514 43.3629 274.785 49.6875 269.417C62.7044 258.459 73.2208 248.016 80.7956 240C87.7821 232.646 92.1946 227.277 93.8125 225.292C129.774 181.461 172.87 103.286 188.534 79.3115C190.667 76.0021 195.594 68.4273 204.787 65.1915C207.876 64.0883 211.185 63.5 214.568 63.5H292.375Z" fill="url(#paint4_linear_71_83)"/>
<path d="M37.032 190.688V145.696H46.12L46.44 151.648H46.952C47.7627 149.685 49.1067 148.107 50.984 146.912C52.904 145.675 55.1867 145.056 57.832 145.056C59.88 145.056 61.736 145.44 63.4 146.208C65.1067 146.933 66.5573 148.043 67.752 149.536C68.9893 151.029 69.928 152.885 70.568 155.104C71.2507 157.323 71.592 159.904 71.592 162.848C71.592 166.773 71.016 170.059 69.864 172.704C68.712 175.349 67.0907 177.333 65 178.656C62.952 179.979 60.5627 180.64 57.832 180.64C56.0827 180.64 54.4827 180.363 53.032 179.808C51.5813 179.253 50.344 178.485 49.32 177.504C48.296 176.523 47.5067 175.371 46.952 174.048H46.44V190.688H37.032ZM54.312 173.024C55.848 173.024 57.192 172.661 58.344 171.936C59.496 171.168 60.3707 170.037 60.968 168.544C61.608 167.051 61.928 165.152 61.928 162.848C61.928 160.501 61.608 158.581 60.968 157.088C60.3707 155.595 59.496 154.485 58.344 153.76C57.192 153.035 55.848 152.672 54.312 152.672C52.5627 152.672 51.112 153.077 49.96 153.888C48.808 154.699 47.9547 155.744 47.4 157.024C46.8453 158.304 46.568 159.691 46.568 161.184V164.512C46.568 165.621 46.7173 166.688 47.016 167.712C47.3147 168.693 47.784 169.589 48.424 170.4C49.064 171.168 49.8747 171.808 50.856 172.32C51.8373 172.789 52.9893 173.024 54.312 173.024ZM89.805 180.576C87.757 180.576 85.8797 180.213 84.173 179.488C82.509 178.763 81.0583 177.653 79.821 176.16C78.6263 174.667 77.709 172.811 77.069 170.592C76.429 168.373 76.109 165.792 76.109 162.848C76.109 158.88 76.6637 155.595 77.773 152.992C78.925 150.347 80.525 148.363 82.573 147.04C84.6637 145.717 87.0743 145.056 89.805 145.056C91.597 145.056 93.197 145.333 94.605 145.888C96.0557 146.443 97.293 147.211 98.317 148.192C99.3837 149.173 100.173 150.325 100.685 151.648H101.197L101.581 145.696H110.605V180H101.197V173.984H100.685C99.917 175.989 98.573 177.589 96.653 178.784C94.733 179.979 92.4503 180.576 89.805 180.576ZM93.389 172.96C95.1383 172.96 96.5677 172.555 97.677 171.744C98.829 170.933 99.6823 169.888 100.237 168.608C100.792 167.285 101.069 165.899 101.069 164.448V161.184C101.069 159.691 100.792 158.304 100.237 157.024C99.6823 155.744 98.829 154.699 97.677 153.888C96.5677 153.077 95.1383 152.672 93.389 152.672C91.853 152.672 90.509 153.035 89.357 153.76C88.205 154.485 87.309 155.595 86.669 157.088C86.029 158.581 85.709 160.501 85.709 162.848C85.709 165.109 86.029 167.008 86.669 168.544C87.309 170.037 88.205 171.147 89.357 171.872C90.509 172.597 91.853 172.96 93.389 172.96ZM117.633 190.688V182.944H121.601C122.582 182.944 123.393 182.816 124.033 182.56C124.716 182.347 125.27 181.963 125.697 181.408C126.166 180.896 126.55 180.235 126.849 179.424L128.513 175.136V179.296L114.561 145.696H124.865L131.137 164.064L132.225 167.712H132.545L133.569 164.064L139.457 145.696H149.505L136.129 181.6C135.276 183.989 134.23 185.845 132.993 187.168C131.756 188.491 130.326 189.408 128.705 189.92C127.126 190.432 125.356 190.688 123.393 190.688H117.633ZM153.407 180V133.344H162.815V180H153.407ZM186.075 180.576C183.472 180.576 181.126 180.192 179.035 179.424C176.944 178.613 175.131 177.44 173.595 175.904C172.059 174.368 170.886 172.512 170.075 170.336C169.264 168.117 168.859 165.621 168.859 162.848C168.859 159.307 169.542 156.213 170.907 153.568C172.272 150.88 174.235 148.789 176.795 147.296C179.355 145.803 182.448 145.056 186.075 145.056C188.635 145.056 190.96 145.461 193.051 146.272C195.142 147.083 196.934 148.256 198.427 149.792C199.963 151.328 201.136 153.184 201.947 155.36C202.8 157.536 203.227 160.032 203.227 162.848C203.227 166.347 202.544 169.44 201.179 172.128C199.814 174.773 197.851 176.843 195.291 178.336C192.774 179.829 189.702 180.576 186.075 180.576ZM186.011 172.96C187.547 172.96 188.891 172.597 190.043 171.872C191.238 171.104 192.134 169.973 192.731 168.48C193.371 166.987 193.691 165.109 193.691 162.848C193.691 161.141 193.52 159.669 193.179 158.432C192.838 157.152 192.326 156.085 191.643 155.232C190.96 154.379 190.15 153.76 189.211 153.376C188.272 152.949 187.227 152.736 186.075 152.736C184.539 152.736 183.174 153.099 181.979 153.824C180.827 154.549 179.931 155.659 179.291 157.152C178.651 158.645 178.331 160.544 178.331 162.848C178.331 164.555 178.502 166.048 178.843 167.328C179.227 168.565 179.76 169.611 180.443 170.464C181.126 171.275 181.936 171.893 182.875 172.32C183.814 172.747 184.859 172.96 186.011 172.96ZM221.493 180.576C219.445 180.576 217.567 180.213 215.861 179.488C214.197 178.763 212.746 177.653 211.509 176.16C210.314 174.667 209.397 172.811 208.757 170.592C208.117 168.373 207.797 165.792 207.797 162.848C207.797 158.88 208.351 155.595 209.461 152.992C210.613 150.347 212.213 148.363 214.26 147.04C216.351 145.717 218.762 145.056 221.493 145.056C223.285 145.056 224.885 145.333 226.293 145.888C227.743 146.443 228.981 147.211 230.005 148.192C231.071 149.173 231.861 150.325 232.373 151.648H232.885L233.269 145.696H242.293V180H232.885V173.984H232.373C231.605 175.989 230.261 177.589 228.341 178.784C226.421 179.979 224.138 180.576 221.493 180.576ZM225.077 172.96C226.826 172.96 228.255 172.555 229.365 171.744C230.517 170.933 231.37 169.888 231.925 168.608C232.479 167.285 232.757 165.899 232.757 164.448V161.184C232.757 159.691 232.479 158.304 231.925 157.024C231.37 155.744 230.517 154.699 229.365 153.888C228.255 153.077 226.826 152.672 225.077 152.672C223.541 152.672 222.197 153.035 221.045 153.76C219.893 154.485 218.997 155.595 218.357 157.088C217.717 158.581 217.397 160.501 217.397 162.848C217.397 165.109 217.717 167.008 218.357 168.544C218.997 170.037 219.893 171.147 221.045 171.872C222.197 172.597 223.541 172.96 225.077 172.96ZM261.555 180.576C259.507 180.576 257.63 180.213 255.923 179.488C254.259 178.763 252.808 177.653 251.571 176.16C250.376 174.667 249.459 172.811 248.819 170.592C248.179 168.373 247.859 165.792 247.859 162.848C247.859 158.88 248.414 155.595 249.523 152.992C250.675 150.347 252.275 148.363 254.323 147.04C256.414 145.717 258.824 145.056 261.555 145.056C263.347 145.056 264.947 145.333 266.355 145.888C267.806 146.443 269.043 147.211 270.067 148.192C271.134 149.173 271.923 150.325 272.435 151.648H272.947V133.344H282.355V180H273.267L272.947 173.984H272.435C271.667 175.989 270.323 177.589 268.403 178.784C266.483 179.979 264.2 180.576 261.555 180.576ZM265.139 172.96C266.888 172.96 268.318 172.555 269.427 171.744C270.579 170.933 271.432 169.888 271.987 168.608C272.542 167.285 272.819 165.899 272.819 164.448V161.184C272.819 160.075 272.67 159.008 272.371 157.984C272.072 156.96 271.603 156.064 270.963 155.296C270.323 154.485 269.512 153.845 268.531 153.376C267.55 152.907 266.419 152.672 265.139 152.672C263.603 152.672 262.259 153.035 261.107 153.76C259.955 154.485 259.059 155.595 258.419 157.088C257.779 158.581 257.459 160.501 257.459 162.848C257.459 165.109 257.779 167.008 258.419 168.544C259.059 170.037 259.955 171.147 261.107 171.872C262.259 172.597 263.603 172.96 265.139 172.96Z" fill="white"/>
<defs>
<linearGradient id="paint0_linear_71_83" x1="159.624" y1="-48.5647" x2="159.624" y2="360.659" gradientUnits="userSpaceOnUse">
<stop stop-color="#65C8FF"/>
<stop offset="1" stop-color="#0077FF"/>
</linearGradient>
<linearGradient id="paint1_linear_71_83" x1="152.187" y1="63" x2="152" y2="420.5" gradientUnits="userSpaceOnUse">
<stop stop-color="#0D47A1"/>
<stop offset="1" stop-color="#2178FF"/>
</linearGradient>
<linearGradient id="paint2_linear_71_83" x1="152.187" y1="63" x2="152" y2="420.5" gradientUnits="userSpaceOnUse">
<stop stop-color="#0D47A1"/>
<stop offset="1" stop-color="#2178FF"/>
</linearGradient>
<linearGradient id="paint3_linear_71_83" x1="152.187" y1="63" x2="152" y2="420.5" gradientUnits="userSpaceOnUse">
<stop stop-color="#0D47A1"/>
<stop offset="1" stop-color="#2178FF"/>
</linearGradient>
<linearGradient id="paint4_linear_71_83" x1="152.187" y1="63" x2="152" y2="420.5" gradientUnits="userSpaceOnUse">
<stop stop-color="#0D47A1"/>
<stop offset="1" stop-color="#2178FF"/>
</linearGradient>
</defs>
</svg>
