<?xml version="1.0" encoding="UTF-8"?>
<svg xmlns="http://www.w3.org/2000/svg" xmlns:xlink="http://www.w3.org/1999/xlink" viewBox="0 0 64 64" width="64px" height="64px">
<g id="surface150195815">
<path style=" stroke:none;fill-rule:nonzero;fill:rgb(50.196081%,84.705883%,100%);fill-opacity:1;" d="M 43 14 L 30 14 L 19.03125 3 L 24.953125 3 Z M 43 14 "/>
<path style=" stroke:none;fill-rule:nonzero;fill:rgb(66.274512%,89.411765%,100%);fill-opacity:1;" d="M 58.839844 14.226562 L 56.015625 12.34375 C 54.703125 11.46875 52.15625 11 50.578125 11 L 13.140625 11 C 11.804688 11 10.554688 10.332031 9.8125 9.21875 L 7.296875 5.445312 C 7.113281 5.164062 6.800781 5 6.464844 5 L 4.421875 5 C 3.726562 5 3.242188 5.683594 3.476562 6.335938 L 6.382812 12.996094 C 7.972656 16.640625 11.570312 19 15.546875 19 L 29.007812 19 L 19.03125 29 L 24.953125 29 L 40.824219 19 L 57.394531 19 C 58.835938 19 60 17.835938 60 16.394531 C 60 15.523438 59.5625 14.710938 58.839844 14.226562 Z M 58.839844 14.226562 "/>
<path style=" stroke:none;fill-rule:nonzero;fill:rgb(92.54902%,93.725491%,94.509804%);fill-opacity:1;" d="M 32.171875 37 C 18.914062 37 8.171875 47.742188 8.171875 61 L 56.171875 61 C 56.171875 47.742188 45.429688 37 32.171875 37 Z M 32.171875 37 "/>
<path style=" stroke:none;fill-rule:nonzero;fill:rgb(100%,100%,100%);fill-opacity:1;" d="M 35.171875 39 C 39.414062 39 43.398438 40.113281 46.855469 42.042969 C 42.796875 38.894531 37.710938 37 32.171875 37 C 18.914062 37 8.171875 47.742188 8.171875 61 L 11.273438 61 C 12.292969 48.683594 22.59375 39 35.171875 39 Z M 35.171875 39 "/>
<path style=" stroke:none;fill-rule:nonzero;fill:rgb(81.176472%,84.705883%,86.274511%);fill-opacity:1;" d="M 49.035156 61 L 56 61 C 56 54.160156 53.125 48.007812 48.539062 43.636719 C 49.648438 46.546875 50.285156 49.699219 50.285156 53.003906 C 50.285156 55.792969 49.84375 58.476562 49.035156 61 Z M 49.035156 61 "/>
<path style=" stroke:none;fill-rule:nonzero;fill:rgb(92.54902%,93.725491%,94.509804%);fill-opacity:1;" d="M 44.183594 34.035156 C 44.0625 33.710938 44 32.363281 44 32 C 44 30.34375 45.34375 29 47 29 C 47.851562 29 48.617188 29.359375 49.164062 29.929688 C 49.632812 28.242188 51.164062 27 53 27 C 55.207031 27 57 28.792969 57 31 C 57 31.699219 56.820312 33.429688 56.507812 34 Z M 44.183594 34.035156 "/>
<path style=" stroke:none;fill-rule:nonzero;fill:rgb(92.54902%,93.725491%,94.509804%);fill-opacity:1;" d="M 7.8125 36 C 7.546875 35.707031 7.316406 35.382812 7.183594 35 L 7.171875 35 C 7.160156 34.972656 7.164062 34.9375 7.152344 34.90625 C 7.0625 34.621094 7 34.320312 7 34 C 7 32.34375 8.34375 31 10 31 C 10.328125 31 10.640625 31.066406 10.9375 31.164062 C 10.980469 31.179688 11.023438 31.1875 11.066406 31.203125 C 11.34375 31.308594 11.597656 31.457031 11.828125 31.636719 C 11.867188 31.667969 11.902344 31.699219 11.941406 31.726562 C 12.167969 31.921875 12.367188 32.144531 12.53125 32.398438 C 12.542969 32.421875 12.550781 32.441406 12.566406 32.464844 C 12.730469 32.734375 12.859375 33.035156 12.929688 33.351562 C 13.242188 33.148438 13.597656 33 14 33 C 15.105469 33 16 33.894531 16 35 C 16 35.371094 15.871094 35.703125 15.695312 36 Z M 7.8125 36 "/>
<path style="fill:none;stroke-width:1;stroke-linecap:round;stroke-linejoin:round;stroke:rgb(10.588235%,14.901961%,16.862746%);stroke-opacity:1;stroke-miterlimit:10;" d="M 11.501953 3.492188 L 9.515625 1.5 L 12.476562 1.5 L 19.033203 5.496094 " transform="matrix(2,0,0,2,0,0)"/>
<path style="fill:none;stroke-width:1;stroke-linecap:round;stroke-linejoin:round;stroke:rgb(10.588235%,14.901961%,16.862746%);stroke-opacity:1;stroke-miterlimit:10;" d="M 14.765625 9.25 L 9.515625 14.5 L 12.476562 14.5 L 20.412109 9.5 L 28.697266 9.5 C 29.417969 9.5 30 8.917969 30 8.197266 C 30 7.761719 29.78125 7.355469 29.419922 7.113281 L 28.007812 6.171875 C 27.351562 5.734375 26.078125 5.5 25.289062 5.5 L 6.570312 5.5 C 5.902344 5.5 5.277344 5.166016 4.90625 4.609375 L 3.648438 2.722656 C 3.556641 2.582031 3.400391 2.5 3.232422 2.5 L 2.210938 2.5 C 1.863281 2.5 1.621094 2.841797 1.738281 3.167969 L 3.191406 6.498047 C 3.986328 8.320312 5.785156 9.5 7.773438 9.5 L 12 9.5 " transform="matrix(2,0,0,2,0,0)"/>
<path style="fill:none;stroke-width:1;stroke-linecap:round;stroke-linejoin:round;stroke:rgb(10.588235%,14.901961%,16.862746%);stroke-opacity:1;stroke-miterlimit:10;" d="M 24.738281 22.242188 C 21.966797 23.056641 19.037109 23.5 16 23.5 C 13.591797 23.5 11.251953 23.220703 9.003906 22.699219 " transform="matrix(2,0,0,2,0,0)"/>
<path style="fill:none;stroke-width:1;stroke-linecap:round;stroke-linejoin:round;stroke:rgb(10.588235%,14.901961%,16.862746%);stroke-opacity:1;stroke-miterlimit:10;" d="M 22.947266 30.5 C 22.947266 26.466797 21.287109 22.839844 18.626953 20.216797 " transform="matrix(2,0,0,2,0,0)"/>
<path style="fill:none;stroke-width:1;stroke-linecap:round;stroke-linejoin:round;stroke:rgb(10.588235%,14.901961%,16.862746%);stroke-opacity:1;stroke-miterlimit:10;" d="M 16 18.632812 L 16 30.367188 " transform="matrix(2,0,0,2,0,0)"/>
<path style="fill:none;stroke-width:1;stroke-linecap:round;stroke-linejoin:round;stroke:rgb(10.588235%,14.901961%,16.862746%);stroke-opacity:1;stroke-miterlimit:10;" d="M 1.5 30.5 L 30.5 30.5 " transform="matrix(2,0,0,2,0,0)"/>
<path style="fill:none;stroke-width:1;stroke-linecap:round;stroke-linejoin:round;stroke:rgb(10.588235%,14.901961%,16.862746%);stroke-opacity:1;stroke-miterlimit:10;" d="M 9.076172 30.5 C 9.076172 25.509766 11.615234 21.144531 15.447266 18.527344 " transform="matrix(2,0,0,2,0,0)"/>
<path style="fill:none;stroke-width:1;stroke-linecap:round;stroke-linejoin:round;stroke:rgb(10.588235%,14.901961%,16.862746%);stroke-opacity:1;stroke-miterlimit:10;" d="M 22.947266 30.5 C 22.947266 25.509766 20.40625 21.144531 16.576172 18.527344 " transform="matrix(2,0,0,2,0,0)"/>
<path style="fill:none;stroke-width:1;stroke-linecap:round;stroke-linejoin:round;stroke:rgb(10.588235%,14.901961%,16.862746%);stroke-opacity:1;stroke-miterlimit:10;" d="M 28 30.5 C 28 23.871094 22.628906 18.5 16 18.5 C 10.066406 18.5 5.140625 22.804688 4.171875 28.460938 " transform="matrix(2,0,0,2,0,0)"/>
<path style="fill:none;stroke-width:1;stroke-linecap:round;stroke-linejoin:round;stroke:rgb(10.588235%,14.901961%,16.862746%);stroke-opacity:1;stroke-miterlimit:10;" d="M 11.117188 23.113281 C 12.707031 23.367188 14.337891 23.5 16 23.5 C 19.037109 23.5 21.966797 23.056641 24.738281 22.242188 " transform="matrix(2,0,0,2,0,0)"/>
<path style="fill:none;stroke-width:1;stroke-linecap:round;stroke-linejoin:round;stroke:rgb(10.588235%,14.901961%,16.862746%);stroke-opacity:1;stroke-miterlimit:10;" d="M 7.453125 22.296875 C 8.021484 22.460938 8.595703 22.607422 9.177734 22.738281 " transform="matrix(2,0,0,2,0,0)"/>
<path style="fill:none;stroke-width:1;stroke-linecap:round;stroke-linejoin:round;stroke:rgb(10.588235%,14.901961%,16.862746%);stroke-opacity:1;stroke-miterlimit:10;" d="M 8.5 12.5 L 4.5 12.5 " transform="matrix(2,0,0,2,0,0)"/>
<path style="fill:none;stroke-width:1;stroke-linecap:round;stroke-linejoin:round;stroke:rgb(10.588235%,14.901961%,16.862746%);stroke-opacity:1;stroke-miterlimit:10;" d="M 26.5 18.5 L 30.5 18.5 " transform="matrix(2,0,0,2,0,0)"/>
<path style="fill:none;stroke-width:1;stroke-linecap:round;stroke-linejoin:round;stroke:rgb(10.588235%,14.901961%,16.862746%);stroke-opacity:1;stroke-miterlimit:10;" d="M 1.5 17.5 L 3.5 17.5 " transform="matrix(2,0,0,2,0,0)"/>
<path style="fill:none;stroke-width:1;stroke-linecap:round;stroke-linejoin:round;stroke:rgb(10.588235%,14.901961%,16.862746%);stroke-opacity:1;stroke-miterlimit:10;" d="M 22.091797 16.5 C 22.03125 16.337891 22 16.181641 22 16 C 22 15.171875 22.671875 14.5 23.5 14.5 C 23.925781 14.5 24.308594 14.679688 24.582031 14.964844 C 24.816406 14.121094 25.582031 13.5 26.5 13.5 C 27.603516 13.5 28.5 14.396484 28.5 15.5 C 28.5 15.849609 28.410156 16.214844 28.253906 16.5 " transform="matrix(2,0,0,2,0,0)"/>
<path style="fill:none;stroke-width:1;stroke-linecap:round;stroke-linejoin:round;stroke:rgb(10.588235%,14.901961%,16.862746%);stroke-opacity:1;stroke-miterlimit:10;" d="M 22 16.5 L 19.5 16.5 " transform="matrix(2,0,0,2,0,0)"/>
<path style="fill:none;stroke-width:1;stroke-linecap:round;stroke-linejoin:round;stroke:rgb(10.588235%,14.901961%,16.862746%);stroke-opacity:1;stroke-miterlimit:10;" d="M 3.585938 17.5 C 3.529297 17.34375 3.5 17.175781 3.5 17 C 3.5 16.171875 4.171875 15.5 5 15.5 C 5.71875 15.5 6.316406 16.005859 6.462891 16.677734 C 6.621094 16.574219 6.798828 16.5 7 16.5 C 7.552734 16.5 8 16.947266 8 17.5 " transform="matrix(2,0,0,2,0,0)"/>
<path style="fill:none;stroke-width:1;stroke-linecap:round;stroke-linejoin:round;stroke:rgb(10.588235%,14.901961%,16.862746%);stroke-opacity:1;stroke-miterlimit:10;" d="M 23.5 7.5 L 23.5 7.449219 " transform="matrix(2,0,0,2,0,0)"/>
<path style="fill:none;stroke-width:1;stroke-linecap:round;stroke-linejoin:round;stroke:rgb(10.588235%,14.901961%,16.862746%);stroke-opacity:1;stroke-miterlimit:10;" d="M 21.5 7.5 L 21.5 7.449219 " transform="matrix(2,0,0,2,0,0)"/>
<path style="fill:none;stroke-width:1;stroke-linecap:round;stroke-linejoin:round;stroke:rgb(10.588235%,14.901961%,16.862746%);stroke-opacity:1;stroke-miterlimit:10;" d="M 19.5 7.5 L 19.5 7.449219 " transform="matrix(2,0,0,2,0,0)"/>
<path style="fill:none;stroke-width:1;stroke-linecap:round;stroke-linejoin:round;stroke:rgb(10.588235%,14.901961%,16.862746%);stroke-opacity:1;stroke-miterlimit:10;" d="M 17.5 7.5 L 17.5 7.449219 " transform="matrix(2,0,0,2,0,0)"/>
<path style="fill:none;stroke-width:1;stroke-linecap:round;stroke-linejoin:round;stroke:rgb(10.588235%,14.901961%,16.862746%);stroke-opacity:1;stroke-miterlimit:10;" d="M 15.5 7.5 L 15.5 7.449219 " transform="matrix(2,0,0,2,0,0)"/>
<path style="fill:none;stroke-width:1;stroke-linecap:round;stroke-linejoin:round;stroke:rgb(10.588235%,14.901961%,16.862746%);stroke-opacity:1;stroke-miterlimit:10;" d="M 13.5 7.5 L 13.5 7.449219 " transform="matrix(2,0,0,2,0,0)"/>
<path style="fill:none;stroke-width:1;stroke-linecap:round;stroke-linejoin:round;stroke:rgb(10.588235%,14.901961%,16.862746%);stroke-opacity:1;stroke-miterlimit:10;" d="M 11.5 7.5 L 11.5 7.449219 " transform="matrix(2,0,0,2,0,0)"/>
<path style="fill:none;stroke-width:1;stroke-linecap:round;stroke-linejoin:round;stroke:rgb(10.588235%,14.901961%,16.862746%);stroke-opacity:1;stroke-miterlimit:10;" d="M 9.5 7.5 L 9.5 7.449219 " transform="matrix(2,0,0,2,0,0)"/>
<path style="fill:none;stroke-width:1;stroke-linecap:round;stroke-linejoin:round;stroke:rgb(10.588235%,14.901961%,16.862746%);stroke-opacity:1;stroke-miterlimit:10;" d="M 23.5 7.5 L 23.5 7.449219 " transform="matrix(2,0,0,2,0,0)"/>
<path style="fill:none;stroke-width:1;stroke-linecap:round;stroke-linejoin:round;stroke:rgb(10.588235%,14.901961%,16.862746%);stroke-opacity:1;stroke-miterlimit:10;" d="M 21.5 7.5 L 21.5 7.449219 " transform="matrix(2,0,0,2,0,0)"/>
<path style="fill:none;stroke-width:1;stroke-linecap:round;stroke-linejoin:round;stroke:rgb(10.588235%,14.901961%,16.862746%);stroke-opacity:1;stroke-miterlimit:10;" d="M 19.5 7.5 L 19.5 7.449219 " transform="matrix(2,0,0,2,0,0)"/>
<path style="fill:none;stroke-width:1;stroke-linecap:round;stroke-linejoin:round;stroke:rgb(10.588235%,14.901961%,16.862746%);stroke-opacity:1;stroke-miterlimit:10;" d="M 17.5 7.5 L 17.5 7.449219 " transform="matrix(2,0,0,2,0,0)"/>
<path style="fill:none;stroke-width:1;stroke-linecap:round;stroke-linejoin:round;stroke:rgb(10.588235%,14.901961%,16.862746%);stroke-opacity:1;stroke-miterlimit:10;" d="M 15.5 7.5 L 15.5 7.449219 " transform="matrix(2,0,0,2,0,0)"/>
<path style="fill:none;stroke-width:1;stroke-linecap:round;stroke-linejoin:round;stroke:rgb(10.588235%,14.901961%,16.862746%);stroke-opacity:1;stroke-miterlimit:10;" d="M 13.5 7.5 L 13.5 7.449219 " transform="matrix(2,0,0,2,0,0)"/>
<path style="fill:none;stroke-width:1;stroke-linecap:round;stroke-linejoin:round;stroke:rgb(10.588235%,14.901961%,16.862746%);stroke-opacity:1;stroke-miterlimit:10;" d="M 11.5 7.5 L 11.5 7.449219 " transform="matrix(2,0,0,2,0,0)"/>
<path style="fill:none;stroke-width:1;stroke-linecap:round;stroke-linejoin:round;stroke:rgb(10.588235%,14.901961%,16.862746%);stroke-opacity:1;stroke-miterlimit:10;" d="M 9.5 7.5 L 9.5 7.449219 " transform="matrix(2,0,0,2,0,0)"/>
</g>
</svg>
