<svg width="500" height="500" viewBox="0 0 500 500" fill="none" xmlns="http://www.w3.org/2000/svg">
<path d="M410.66 241.87C320.96 190.08 176.02 190.08 86.91 241.87C-2.20005 293.66 -1.73006 377.62 87.9999 429.4C177.73 481.18 322.64 481.19 411.76 429.4C500.88 377.61 500.36 293.65 410.66 241.87Z" fill="#E0E0E0"/>
<path d="M254.45 203.08L20.45 338.08C20.5622 340.858 20.8192 343.629 21.2199 346.38L268.78 203.55C264.013 203.31 259.237 203.153 254.45 203.08Z" fill="white"/>
<path d="M204.73 465.6C209.05 466.1 213.38 466.6 217.73 466.92L476.07 317.92C475.463 315.393 474.733 312.873 473.88 310.36L204.73 465.6Z" fill="white"/>
<path d="M410.66 241.87C371 219 320.48 206.19 268.78 203.55L21.21 346.38C25.6 376.65 47.85 406.24 87.96 429.38C121.18 448.56 161.96 460.61 204.73 465.58L473.89 310.32C465.37 285.24 444.3 261.29 410.66 241.87Z" fill="black"/>
<path opacity="0.2" d="M410.66 241.87C367.31 216.87 311.07 203.87 254.45 203.08L20.45 338.08C21.68 371.19 44.19 404.13 88 429.4C124.58 450.52 170.35 463.02 217.78 466.92L476.12 317.92C469.47 290.08 447.67 263.23 410.66 241.87Z" fill="white"/>
<path d="M297.44 220.33L256.63 244.05L249.85 240.13L290.67 216.42L297.44 220.33Z" fill="white"/>
<path d="M311 228.15L270.18 251.87L263.41 247.96L304.22 224.24L311 228.15Z" fill="white"/>
<path d="M324.55 235.98L283.74 259.7L276.96 255.78L317.77 232.07L324.55 235.98Z" fill="white"/>
<path d="M413.4 287.27L372.59 310.99L365.81 307.08L406.62 283.36L413.4 287.27Z" fill="white"/>
<path d="M426.95 295.1L386.14 318.82L379.36 314.9L420.18 291.19L426.95 295.1Z" fill="white"/>
<path d="M399.85 279.45L359.03 303.17L352.26 299.25L393.07 275.54L399.85 279.45Z" fill="white"/>
<path d="M200.5 276.25L159.69 299.97L152.91 296.06L193.73 272.34L200.5 276.25Z" fill="white"/>
<path d="M214.06 284.07L173.24 307.79L166.47 303.88L207.28 280.16L214.06 284.07Z" fill="white"/>
<path d="M227.61 291.9L186.8 315.62L180.02 311.7L220.83 287.99L227.61 291.9Z" fill="white"/>
<path d="M316.46 343.2L275.64 366.92L268.87 363L309.68 339.28L316.46 343.2Z" fill="white"/>
<path d="M330.01 351.02L289.2 374.74L282.42 370.83L323.24 347.11L330.01 351.02Z" fill="white"/>
<path d="M302.9 335.37L262.09 359.09L255.32 355.18L296.13 331.46L302.9 335.37Z" fill="white"/>
<path d="M102.41 332.7L61.5898 356.42L54.8198 352.51L95.6298 328.79L102.41 332.7Z" fill="white"/>
<path d="M115.96 340.53L75.1499 364.25L68.3699 360.33L109.18 336.62L115.96 340.53Z" fill="white"/>
<path d="M129.51 348.35L88.6999 372.07L81.9199 368.16L122.74 344.44L129.51 348.35Z" fill="white"/>
<path d="M218.36 399.65L177.55 423.37L170.77 419.45L211.59 395.74L218.36 399.65Z" fill="white"/>
<path d="M231.91 407.47L191.1 431.19L184.32 427.28L225.14 403.56L231.91 407.47Z" fill="white"/>
<path d="M204.81 391.82L164 415.54L157.22 411.63L198.03 387.91L204.81 391.82Z" fill="white"/>
<path d="M366.88 254.85L326.07 278.57L319.29 274.65L360.11 250.94L363.5 252.89L366.88 254.85Z" fill="white"/>
<path d="M294 297.2L253.18 320.92L246.41 317.01L287.23 293.29L290.62 295.25L294 297.2Z" fill="white"/>
<path d="M221.12 339.56L180.3 363.28L173.53 359.37L214.34 335.65L217.73 337.6L221.12 339.56Z" fill="white"/>
<path d="M148.24 381.91L107.42 405.63L100.65 401.72L141.46 378L144.85 379.96L148.24 381.91Z" fill="white"/>
<path d="M81.95 257.58V155.42L97.6 164.46V266.62L81.95 257.58Z" fill="#E6E6E6"/>
<path d="M118.89 161.15V263.31L97.5999 266.62V164.46L118.89 161.15Z" fill="#F0F0F0"/>
<path d="M124.53 148.81V250.97L118.89 263.31V161.15L124.53 148.81Z" fill="#FAFAFA"/>
<g opacity="0.05">
<path d="M81.95 257.58V155.42L97.6 164.46V266.62L81.95 257.58Z" fill="black"/>
<path d="M118.89 161.15V263.31L97.5999 266.62V164.46L118.89 161.15Z" fill="black"/>
<path d="M124.53 148.81V250.97L118.89 263.31V161.15L124.53 148.81Z" fill="black"/>
</g>
<path d="M140.56 145.37L130.68 167.01L93.3599 172.81L65.9199 156.96L75.8099 135.33L113.13 129.53L140.56 145.37Z" fill="#F0F0F0"/>
<path d="M65.9199 162.46V156.96L93.3599 172.81V178.31L65.9199 162.46Z" fill="#E0E0E0"/>
<path d="M130.68 167.01V172.51L93.3599 178.31V172.81L130.68 167.01Z" fill="#EBEBEB"/>
<path d="M140.56 145.37V150.87L130.68 172.51V167.01L140.56 145.37Z" fill="#FAFAFA"/>
<path d="M96.3899 138.25L77.3599 127.26V146.63L96.3899 157.62V138.25Z" fill="#E0E0E0"/>
<path d="M122.27 134.23L96.3899 138.25V157.61L122.27 153.59V134.23Z" fill="#E0E0E0"/>
<path d="M129.12 119.22L122.27 134.23V153.46L129.12 138.46V119.22Z" fill="#E0E0E0"/>
<path opacity="0.3" d="M96.3899 138.25L77.3599 127.26V146.63L96.3899 157.62V138.25Z" fill="black"/>
<path d="M77.3599 146.63V154.24L96.3899 165.23V157.62L77.3599 146.63Z" fill="#E0E0E0"/>
<path d="M96.3899 157.61V165.23L122.27 161.21V153.59L96.3899 157.61Z" fill="#EBEBEB"/>
<path opacity="0.2" d="M122.27 134.23L96.3899 138.25V157.61L122.27 153.59V134.23Z" fill="black"/>
<path opacity="0.1" d="M129.12 119.22L122.27 134.23V153.46L129.12 138.46V119.22Z" fill="black"/>
<path d="M122.27 153.46V161.21L129.12 146.2V138.46L122.27 153.46Z" fill="#FAFAFA"/>
<path opacity="0.1" d="M77.3599 146.63V154.24L96.3899 165.23V157.62L77.3599 146.63Z" fill="black"/>
<path opacity="0.1" d="M96.3899 157.61V165.23L122.27 161.21V153.59L96.3899 157.61Z" fill="black"/>
<path opacity="0.1" d="M122.27 153.46V161.21L129.12 146.2V138.46L122.27 153.46Z" fill="black"/>
<path d="M140.56 107.89L130.68 129.52L93.3599 135.32L65.9199 119.48L75.8099 97.84L113.13 92.04L140.56 107.89Z" fill="#F0F0F0"/>
<path d="M65.9199 124.98V119.48L93.3599 135.32V140.82L65.9199 124.98Z" fill="#E0E0E0"/>
<path d="M130.68 129.52V135.02L93.3599 140.82V135.32L130.68 129.52Z" fill="#EBEBEB"/>
<path d="M140.56 107.89V113.39L130.68 135.02V129.52L140.56 107.89Z" fill="#FAFAFA"/>
<path d="M105.4 112.86C105.4 102.47 104.56 88.98 104.56 88.98C104.548 88.8638 104.505 88.7528 104.437 88.6581C104.368 88.5634 104.276 88.4882 104.17 88.44C103.88 88.2925 103.56 88.2156 103.235 88.2156C102.91 88.2156 102.589 88.2925 102.3 88.44C102.195 88.4895 102.105 88.5653 102.039 88.6599C101.972 88.7546 101.931 88.8648 101.92 88.98C101.92 88.98 101.08 102.47 101.08 112.86C101.102 113.05 101.173 113.232 101.285 113.388C101.397 113.543 101.546 113.668 101.72 113.75C102.187 113.979 102.7 114.098 103.22 114.098C103.74 114.098 104.253 113.979 104.72 113.75C104.903 113.677 105.063 113.556 105.183 113.399C105.303 113.242 105.378 113.056 105.4 112.86V112.86Z" fill="#E0E0E0"/>
<path opacity="0.1" d="M105.4 112.86C105.4 102.47 104.56 88.98 104.56 88.98C104.548 88.8638 104.505 88.7528 104.437 88.6581C104.368 88.5634 104.276 88.4882 104.17 88.44C103.88 88.2925 103.56 88.2156 103.235 88.2156C102.91 88.2156 102.589 88.2925 102.3 88.44C102.195 88.4895 102.105 88.5653 102.039 88.6599C101.972 88.7546 101.931 88.8648 101.92 88.98C101.92 88.98 101.08 102.47 101.08 112.86C101.102 113.05 101.173 113.232 101.285 113.388C101.397 113.543 101.546 113.668 101.72 113.75C102.187 113.979 102.7 114.098 103.22 114.098C103.74 114.098 104.253 113.979 104.72 113.75C104.903 113.677 105.063 113.556 105.183 113.399C105.303 113.242 105.378 113.056 105.4 112.86V112.86Z" fill="black"/>
<path d="M109.67 91C109.67 92.2717 109.293 93.5149 108.586 94.5723C107.88 95.6297 106.875 96.4539 105.7 96.9406C104.526 97.4272 103.233 97.5546 101.985 97.3065C100.738 97.0584 99.5924 96.446 98.6931 95.5467C97.7939 94.6475 97.1815 93.5017 96.9334 92.2544C96.6853 91.0071 96.8126 89.7143 97.2993 88.5394C97.7859 87.3644 98.6101 86.3602 99.6675 85.6537C100.725 84.9471 101.968 84.57 103.24 84.57C104.945 84.57 106.581 85.2474 107.787 86.4533C108.992 87.6592 109.67 89.2947 109.67 91V91Z" fill="#E0E0E0"/>
<path d="M109.67 91C109.67 92.2717 109.293 93.5149 108.586 94.5723C107.88 95.6297 106.875 96.4539 105.7 96.9406C104.526 97.4272 103.233 97.5546 101.985 97.3065C100.738 97.0584 99.5924 96.446 98.6931 95.5467C97.7939 94.6475 97.1815 93.5017 96.9334 92.2544C96.6853 91.0071 96.8126 89.7143 97.2993 88.5394C97.7859 87.3644 98.6101 86.3602 99.6675 85.6537C100.725 84.9471 101.968 84.57 103.24 84.57C104.945 84.57 106.581 85.2474 107.787 86.4533C108.992 87.6592 109.67 89.2947 109.67 91V91Z" fill="#E0E0E0"/>
<path d="M104.52 86C104.52 79.85 104.02 71.87 104.02 71.87C104.012 71.8016 103.986 71.7365 103.946 71.6805C103.906 71.6246 103.852 71.5797 103.79 71.55C103.619 71.4661 103.431 71.4225 103.24 71.4225C103.049 71.4225 102.861 71.4661 102.69 71.55C102.628 71.5797 102.574 71.6246 102.534 71.6805C102.494 71.7365 102.468 71.8016 102.46 71.87C102.46 71.87 101.96 79.87 101.96 86C101.973 86.1122 102.014 86.2192 102.081 86.3104C102.148 86.4015 102.237 86.4738 102.34 86.52C102.62 86.6623 102.93 86.7365 103.245 86.7365C103.559 86.7365 103.87 86.6623 104.15 86.52C104.252 86.4733 104.339 86.4006 104.404 86.3094C104.469 86.2181 104.509 86.1115 104.52 86V86Z" fill="#E0E0E0"/>
<path opacity="0.1" d="M104.52 86C104.52 79.85 104.02 71.87 104.02 71.87C104.012 71.8016 103.986 71.7365 103.946 71.6805C103.906 71.6246 103.852 71.5797 103.79 71.55C103.619 71.4661 103.431 71.4225 103.24 71.4225C103.049 71.4225 102.861 71.4661 102.69 71.55C102.628 71.5797 102.574 71.6246 102.534 71.6805C102.494 71.7365 102.468 71.8016 102.46 71.87C102.46 71.87 101.96 79.87 101.96 86C101.973 86.1122 102.014 86.2192 102.081 86.3104C102.148 86.4015 102.237 86.4738 102.34 86.52C102.62 86.6623 102.93 86.7365 103.245 86.7365C103.559 86.7365 103.87 86.6623 104.15 86.52C104.252 86.4733 104.339 86.4006 104.404 86.3094C104.469 86.2181 104.509 86.1115 104.52 86V86Z" fill="black"/>
<path d="M350.55 59.22C346.38 56.81 342.86 57.99 341.74 61.73C340.734 59.6776 339.175 57.9462 337.24 56.73C333.97 54.84 331.31 56.36 331.3 60.11V61.83L326.92 59.3C324.63 57.98 322.77 59.04 322.76 61.67C322.834 63.1047 323.247 64.5015 323.965 65.746C324.683 66.9905 325.685 68.0473 326.89 68.83L364 90.27C366.29 91.59 368.15 90.53 368.16 87.9C368.082 86.466 367.668 85.0704 366.951 83.8265C366.233 82.5825 365.232 81.5251 364.03 80.74L359.64 78.21V75C359.7 69.22 355.61 62.14 350.55 59.22Z" fill="#E6E6E6"/>
<path d="M314.14 73.27C311.14 71.54 308.62 72.39 307.81 75.08C307.091 73.6019 305.972 72.3548 304.58 71.48C302.24 70.12 300.33 71.21 300.32 73.91V75.14L297.17 73.33C295.52 72.33 294.17 73.14 294.17 75.03C294.23 76.061 294.533 77.0632 295.055 77.9548C295.576 78.8464 296.301 79.602 297.17 80.16L323.84 95.56C325.48 96.56 326.84 95.75 326.84 93.86C326.783 92.8268 326.481 91.822 325.96 90.9283C325.438 90.0347 324.711 89.2778 323.84 88.72L320.69 86.91V84.63C320.569 82.3547 319.913 80.14 318.775 78.166C317.636 76.1921 316.049 74.5146 314.14 73.27V73.27Z" fill="#E6E6E6"/>
<path d="M116.78 299.68C116.276 299.68 115.793 299.48 115.436 299.124C115.08 298.767 114.88 298.284 114.88 297.78V282.78H118.68V297.78C118.68 298.284 118.48 298.767 118.123 299.124C117.767 299.48 117.284 299.68 116.78 299.68Z" fill="#384850"/>
<path d="M113.74 278.42V282.51C113.761 282.778 113.854 283.036 114.009 283.256C114.164 283.475 114.375 283.65 114.62 283.76C115.286 284.101 116.022 284.278 116.77 284.278C117.518 284.278 118.254 284.101 118.92 283.76C119.167 283.65 119.381 283.476 119.539 283.257C119.697 283.037 119.794 282.779 119.82 282.51V278.42H113.74Z" fill="black"/>
<path d="M114.64 277.18C114.378 277.266 114.149 277.433 113.987 277.656C113.825 277.88 113.738 278.149 113.738 278.425C113.738 278.701 113.825 278.97 113.987 279.194C114.149 279.417 114.378 279.584 114.64 279.67C115.307 280.005 116.043 280.18 116.79 280.18C117.537 280.18 118.273 280.005 118.94 279.67C119.202 279.584 119.431 279.417 119.593 279.194C119.755 278.97 119.842 278.701 119.842 278.425C119.842 278.149 119.755 277.88 119.593 277.656C119.431 277.433 119.202 277.266 118.94 277.18C118.275 276.838 117.538 276.659 116.79 276.659C116.042 276.659 115.305 276.838 114.64 277.18Z" fill="black"/>
<path opacity="0.3" d="M114.64 277.18C114.378 277.266 114.149 277.433 113.987 277.656C113.825 277.88 113.738 278.149 113.738 278.425C113.738 278.701 113.825 278.97 113.987 279.194C114.149 279.417 114.378 279.584 114.64 279.67C115.307 280.005 116.043 280.18 116.79 280.18C117.537 280.18 118.273 280.005 118.94 279.67C119.202 279.584 119.431 279.417 119.593 279.194C119.755 278.97 119.842 278.701 119.842 278.425C119.842 278.149 119.755 277.88 119.593 277.656C119.431 277.433 119.202 277.266 118.94 277.18C118.275 276.838 117.538 276.659 116.79 276.659C116.042 276.659 115.305 276.838 114.64 277.18Z" fill="white"/>
<path d="M116.78 251.89C116.19 251.89 115.625 252.124 115.207 252.54C114.789 252.956 114.553 253.52 114.55 254.11V278.42C114.568 278.616 114.638 278.803 114.752 278.963C114.866 279.123 115.021 279.249 115.2 279.33C115.685 279.582 116.224 279.713 116.77 279.713C117.316 279.713 117.855 279.582 118.34 279.33C118.521 279.251 118.678 279.125 118.794 278.965C118.91 278.805 118.981 278.617 119 278.42V278.42V254.11C119 253.818 118.943 253.53 118.831 253.26C118.719 252.991 118.556 252.746 118.35 252.54C118.144 252.334 117.899 252.171 117.63 252.059C117.36 251.947 117.072 251.89 116.78 251.89V251.89Z" fill="#8EC3FF"/>
<path opacity="0.3" d="M116.78 251.89C116.19 251.89 115.625 252.124 115.207 252.54C114.789 252.956 114.553 253.52 114.55 254.11V278.42C114.568 278.616 114.638 278.803 114.752 278.963C114.866 279.123 115.021 279.249 115.2 279.33C115.685 279.582 116.224 279.713 116.77 279.713C117.316 279.713 117.855 279.582 118.34 279.33C118.521 279.251 118.678 279.125 118.794 278.965C118.91 278.805 118.981 278.617 119 278.42V278.42V254.11C119 253.818 118.943 253.53 118.831 253.26C118.719 252.991 118.556 252.746 118.35 252.54C118.144 252.334 117.899 252.171 117.63 252.059C117.36 251.947 117.072 251.89 116.78 251.89V251.89Z" fill="white"/>
<path d="M106.62 305.43C106.336 304.102 105.74 302.861 104.88 301.81L105.66 300.81C106.25 301.86 107.09 304 106.62 305.43Z" fill="#753432"/>
<path d="M121.54 289.58L120.71 285.9C120.607 285.445 120.353 285.037 119.991 284.744C119.628 284.45 119.177 284.286 118.71 284.28V284.28L118.17 285.97C118.095 286.211 117.966 286.432 117.792 286.616C117.619 286.799 117.406 286.941 117.17 287.03L118.85 286.73C119.005 286.702 119.164 286.705 119.317 286.741C119.471 286.777 119.615 286.843 119.742 286.937C119.869 287.031 119.974 287.15 120.053 287.286C120.132 287.422 120.182 287.574 120.2 287.73L120.61 290.61C119.71 290.78 119.18 290.76 118.8 289.36C118.961 290.206 118.961 291.074 118.8 291.92H119.8C120.191 291.921 120.572 291.798 120.89 291.57V291.57C121.182 291.339 121.4 291.027 121.516 290.673C121.631 290.319 121.64 289.939 121.54 289.58V289.58Z" fill="#753432"/>
<path d="M118.73 289.34C119.11 290.74 119.64 290.76 120.54 290.59L120.13 287.71C120.112 287.553 120.062 287.402 119.983 287.266C119.904 287.13 119.798 287.011 119.672 286.917C119.545 286.823 119.401 286.757 119.247 286.721C119.094 286.685 118.935 286.682 118.78 286.71L117.1 287.01C116.849 287.102 116.579 287.132 116.314 287.097C116.048 287.062 115.795 286.963 115.577 286.809C115.358 286.654 115.181 286.449 115.059 286.21C114.938 285.972 114.876 285.708 114.88 285.44V284.8L113.51 286.64L112.66 291.25L111.66 292.77L104.86 301.77L102.02 298.77L96.3398 304.77L101.94 309.77C102.4 310.179 102.945 310.48 103.536 310.653C104.126 310.826 104.748 310.866 105.356 310.771C105.964 310.675 106.543 310.446 107.052 310.1C107.561 309.754 107.987 309.3 108.3 308.77L117.09 294.05C117.798 293.472 118.334 292.711 118.64 291.85C118.825 291.026 118.855 290.175 118.73 289.34V289.34Z" fill="#8F5251"/>
<path d="M137.69 311.58C137.188 311.577 136.707 311.376 136.353 311.02C135.999 310.664 135.8 310.182 135.8 309.68V294.68H139.59V309.68C139.59 309.93 139.541 310.177 139.445 310.407C139.35 310.638 139.21 310.847 139.034 311.023C138.857 311.2 138.648 311.34 138.417 311.435C138.187 311.531 137.94 311.58 137.69 311.58V311.58Z" fill="#384850"/>
<path d="M134.66 290.33V294.42C134.681 294.688 134.774 294.946 134.929 295.166C135.084 295.385 135.295 295.56 135.54 295.67C136.207 296.005 136.943 296.18 137.69 296.18C138.437 296.18 139.173 296.005 139.84 295.67C140.085 295.558 140.296 295.383 140.452 295.164C140.608 294.944 140.704 294.688 140.73 294.42V290.33H134.66Z" fill="black"/>
<path d="M135.55 289.08C135.292 289.171 135.069 289.339 134.911 289.562C134.753 289.785 134.668 290.052 134.668 290.325C134.668 290.598 134.753 290.865 134.911 291.088C135.069 291.311 135.292 291.479 135.55 291.57C136.215 291.911 136.952 292.088 137.7 292.088C138.447 292.088 139.184 291.911 139.85 291.57C140.108 291.479 140.331 291.311 140.489 291.088C140.646 290.865 140.731 290.598 140.731 290.325C140.731 290.052 140.646 289.785 140.489 289.562C140.331 289.339 140.108 289.171 139.85 289.08C139.183 288.745 138.446 288.57 137.7 288.57C136.953 288.57 136.217 288.745 135.55 289.08V289.08Z" fill="black"/>
<path opacity="0.3" d="M135.55 289.08C135.292 289.171 135.069 289.339 134.911 289.562C134.753 289.785 134.668 290.052 134.668 290.325C134.668 290.598 134.753 290.865 134.911 291.088C135.069 291.311 135.292 291.479 135.55 291.57C136.215 291.911 136.952 292.088 137.7 292.088C138.447 292.088 139.184 291.911 139.85 291.57C140.108 291.479 140.331 291.311 140.489 291.088C140.646 290.865 140.731 290.598 140.731 290.325C140.731 290.052 140.646 289.785 140.489 289.562C140.331 289.339 140.108 289.171 139.85 289.08C139.183 288.745 138.446 288.57 137.7 288.57C136.953 288.57 136.217 288.745 135.55 289.08V289.08Z" fill="white"/>
<path d="M137.69 263.8C137.398 263.8 137.11 263.857 136.84 263.969C136.571 264.081 136.326 264.244 136.12 264.45C135.914 264.656 135.751 264.901 135.639 265.17C135.527 265.44 135.47 265.728 135.47 266.02V290.33C135.486 290.526 135.555 290.715 135.669 290.875C135.784 291.035 135.94 291.161 136.12 291.24C136.607 291.487 137.144 291.616 137.69 291.616C138.236 291.616 138.773 291.487 139.26 291.24C139.441 291.161 139.598 291.035 139.714 290.875C139.83 290.715 139.901 290.527 139.92 290.33V290.33V266C139.915 265.413 139.677 264.852 139.259 264.44C138.841 264.027 138.277 263.797 137.69 263.8Z" fill="#8EC3FF"/>
<path opacity="0.3" d="M137.69 263.8C137.398 263.8 137.11 263.857 136.84 263.969C136.571 264.081 136.326 264.244 136.12 264.45C135.914 264.656 135.751 264.901 135.639 265.17C135.527 265.44 135.47 265.728 135.47 266.02V290.33C135.486 290.526 135.555 290.715 135.669 290.875C135.784 291.035 135.94 291.161 136.12 291.24C136.607 291.487 137.144 291.616 137.69 291.616C138.236 291.616 138.773 291.487 139.26 291.24C139.441 291.161 139.598 291.035 139.714 290.875C139.83 290.715 139.901 290.527 139.92 290.33V290.33V266C139.915 265.413 139.677 264.852 139.259 264.44C138.841 264.027 138.277 263.797 137.69 263.8Z" fill="white"/>
<path d="M105.58 412.13C105.849 412.762 106.295 413.303 106.865 413.688C107.434 414.073 108.103 414.286 108.79 414.3C110.16 414.296 111.523 414.122 112.85 413.78C115.85 413.23 118.78 413.78 121.79 413.7C122.779 413.709 123.766 413.601 124.73 413.38C125.698 413.156 126.575 412.639 127.24 411.9C127.614 411.449 127.863 410.908 127.96 410.33C128.021 410.766 127.988 411.21 127.864 411.633C127.74 412.055 127.527 412.446 127.24 412.78C126.575 413.519 125.698 414.036 124.73 414.26C123.766 414.481 122.779 414.588 121.79 414.58C118.79 414.65 115.87 414.11 112.85 414.66C111.524 415.006 110.16 415.181 108.79 415.18C108.104 415.165 107.437 414.954 106.868 414.571C106.299 414.188 105.852 413.65 105.58 413.02C105.452 412.568 105.418 412.095 105.48 411.63C105.498 411.799 105.531 411.967 105.58 412.13Z" fill="#384850"/>
<path d="M105.66 409.63C105.84 408.72 106.03 407.81 106.21 406.89C106.28 406.402 106.439 405.93 106.68 405.5C106.802 405.285 106.979 405.106 107.194 404.983C107.409 404.86 107.652 404.797 107.9 404.8C109.55 404.58 111.9 403.98 113.25 404.93C115.418 406.414 118.004 407.164 120.63 407.07C121.987 406.907 123.355 406.854 124.72 406.91C125.404 406.947 126.065 407.175 126.625 407.57C127.186 407.964 127.624 408.508 127.89 409.14C128.003 409.526 128.027 409.933 127.96 410.33C127.863 410.908 127.614 411.449 127.24 411.9C126.575 412.639 125.699 413.156 124.73 413.38C123.766 413.601 122.779 413.709 121.79 413.7C118.79 413.77 115.87 413.23 112.85 413.78C111.524 414.122 110.16 414.296 108.79 414.3C108.103 414.286 107.434 414.073 106.865 413.688C106.296 413.303 105.849 412.762 105.58 412.13C105.531 411.967 105.498 411.799 105.48 411.63C105.435 410.958 105.496 410.283 105.66 409.63V409.63Z" fill="black"/>
<path d="M113.65 402.06L113.76 405.63C113.774 405.996 113.645 406.353 113.4 406.625C113.156 406.898 112.815 407.064 112.45 407.09C111.252 407.185 110.048 407.185 108.85 407.09C108.363 407.051 107.907 406.836 107.568 406.484C107.229 406.132 107.03 405.668 107.01 405.18L106.87 402.54L113.65 402.06Z" fill="#8F5251"/>
<path d="M90.33 400.16C90.3488 400.685 90.5151 401.195 90.81 401.63C91.2344 402.147 91.8375 402.486 92.5 402.58C93.2879 402.713 94.0973 402.623 94.8362 402.318C95.5752 402.014 96.214 401.509 96.68 400.86C97.13 400.21 97.38 399.44 97.81 398.78C98.4507 397.889 99.2427 397.117 100.15 396.5C101.06 395.879 101.86 395.112 102.52 394.23C102.826 393.801 103.027 393.305 103.105 392.784C103.183 392.263 103.137 391.73 102.97 391.23C103.053 391.351 103.126 391.478 103.19 391.61C103.391 392.14 103.457 392.712 103.382 393.274C103.307 393.836 103.093 394.371 102.76 394.83C102.095 395.738 101.28 396.526 100.35 397.16C99.4412 397.799 98.6467 398.587 98 399.49C97.57 400.18 97.31 400.97 96.85 401.64C96.3798 402.31 95.7285 402.832 94.9723 403.146C94.2161 403.459 93.3863 403.551 92.58 403.41C91.9013 403.305 91.2871 402.948 90.86 402.41C90.4795 401.797 90.3043 401.079 90.36 400.36C90.32 400.31 90.33 400.23 90.33 400.16Z" fill="#384850"/>
<path d="M91.42 395.68C92.5 393.77 94.74 392.39 96.42 391.04C97.3633 390.222 98.5233 389.694 99.76 389.52C100.379 389.448 101.005 389.56 101.56 389.843C102.116 390.126 102.575 390.567 102.88 391.11C102.878 391.143 102.878 391.177 102.88 391.21C103.047 391.71 103.093 392.243 103.015 392.764C102.937 393.285 102.736 393.781 102.43 394.21C101.77 395.092 100.97 395.859 100.06 396.48C99.1528 397.097 98.3608 397.869 97.72 398.76C97.29 399.42 97.04 400.19 96.59 400.84C96.124 401.489 95.4852 401.994 94.7462 402.298C94.0073 402.603 93.1979 402.693 92.41 402.56C91.7475 402.466 91.1444 402.127 90.72 401.61C90.4252 401.175 90.2588 400.665 90.24 400.14C90.24 399.97 90.24 399.79 90.24 399.62C90.2991 398.229 90.7047 396.875 91.42 395.68V395.68Z" fill="black"/>
<path d="M96.12 394V397.24C95.3233 397.615 94.4475 397.79 93.5679 397.752C92.6883 397.714 91.8311 397.463 91.07 397.02L90.77 394.1L96.12 394Z" fill="#8F5251"/>
<path d="M89.92 335.15C88.92 338.07 90.14 351.94 90.71 365.25C88.6 370.25 89.17 384.55 90.38 394.7C90.38 394.7 92.49 395.99 96.31 394.7L101.09 366.7L101.76 350.88C101.76 350.88 102.96 364.88 104.34 373.88C103.04 380.77 103.34 382.07 106.57 403.28C107.684 403.839 108.913 404.131 110.16 404.131C111.407 404.131 112.636 403.839 113.75 403.28C115.56 373.48 114.89 346.28 114.55 336.56L89.92 335.15Z" fill="black"/>
<path opacity="0.3" d="M101.35 360.52L101.89 347.62C98.5599 347.62 95.4599 345.13 93.1099 342.76C94.6849 345.323 97.0001 347.349 99.7499 348.57L101.35 360.52Z" fill="black"/>
<path d="M115.06 312.13V337.4C100.18 343.63 90.54 338 89.23 335.07C89.92 324.79 87.49 312.76 87.67 307.64C87.85 302.52 88.49 296.77 96.41 297.93L104.84 298.75L109.12 299.75L115.06 312.13Z" fill="white"/>
<path opacity="0.1" d="M115.06 315.39L108.96 308.68C109.952 313.288 112.045 317.587 115.06 321.21V315.39Z" fill="black"/>
<path d="M138 306.05L129.21 320.77C128.896 321.3 128.469 321.755 127.959 322.101C127.449 322.447 126.869 322.676 126.261 322.771C125.652 322.867 125.03 322.827 124.438 322.653C123.847 322.48 123.301 322.179 122.84 321.77L117.25 316.77L122.93 310.77L125.77 313.72L132.57 304.72L133.57 303.21L134.08 300.45C134.309 299.23 134.812 298.078 135.55 297.08L135.8 296.75V297.4C135.8 297.843 135.976 298.268 136.289 298.581C136.602 298.894 137.027 299.07 137.47 299.07C137.825 299.069 138.17 298.956 138.456 298.745C138.742 298.535 138.954 298.239 139.06 297.9L139.59 296.21C140.057 296.216 140.508 296.38 140.871 296.674C141.233 296.967 141.487 297.375 141.59 297.83L142.4 301.4C142.491 301.802 142.461 302.222 142.313 302.606C142.165 302.991 141.907 303.323 141.57 303.56L138 306.05Z" fill="#8F5251"/>
<path d="M127.54 317.34C127.255 316.009 126.659 314.765 125.8 313.71L126.58 312.71C127.17 313.77 128 315.89 127.54 317.34Z" fill="#753432"/>
<path d="M123.66 310.78L115.66 302.92C113.881 301.169 111.569 300.061 109.09 299.77H108.95C105.56 307.18 110.04 310.77 110.04 310.77L117.46 317.59C120.267 316.125 122.464 313.712 123.66 310.78V310.78Z" fill="white"/>
<path d="M108.88 281.4C109.037 281.222 109.138 281.002 109.17 280.767C109.202 280.532 109.164 280.293 109.06 280.08C109.269 280.143 109.489 280.159 109.705 280.128C109.921 280.097 110.127 280.019 110.31 279.9C110.492 279.791 110.64 279.633 110.738 279.443C110.835 279.254 110.877 279.042 110.86 278.83C110.832 278.621 110.738 278.426 110.593 278.274C110.447 278.121 110.257 278.018 110.05 277.98C110.456 277.897 110.814 277.66 111.05 277.32C111.29 276.999 111.398 276.598 111.35 276.2C111.278 275.836 111.109 275.497 110.861 275.221C110.613 274.944 110.295 274.74 109.94 274.63C109.228 274.428 108.479 274.391 107.75 274.52C107.865 274.118 107.835 273.688 107.665 273.306C107.495 272.924 107.196 272.614 106.82 272.43C106.485 272.319 106.128 272.291 105.779 272.348C105.431 272.406 105.102 272.547 104.82 272.76C104.255 273.2 103.771 273.734 103.39 274.34C102.585 273.917 101.699 273.667 100.791 273.609C99.8832 273.55 98.973 273.684 98.12 274C97.2769 274.348 96.5153 274.867 95.8836 275.524C95.2518 276.182 94.7636 276.964 94.45 277.82C93.7838 278.042 93.1817 278.424 92.6956 278.931C92.2096 279.437 91.8541 280.055 91.66 280.73C91.3189 282.086 91.4027 283.513 91.9 284.82C92.3997 286.113 93.0403 287.347 93.81 288.5C94.16 289.06 94.51 289.62 94.87 290.17C95.23 290.72 96.44 292.61 96.87 293.31C97.8588 293.769 98.9465 293.973 100.034 293.905C101.122 293.837 102.176 293.498 103.1 292.92C104.916 291.705 106.313 289.959 107.1 287.92C107.91 285.812 108.506 283.627 108.88 281.4Z" fill="#263238"/>
<path d="M109.85 285.73L111.18 288.04L109.86 288.53C109.907 287.597 109.903 286.663 109.85 285.73V285.73Z" fill="#753432"/>
<path d="M109.85 285.73C109.692 284.252 109.356 282.798 108.85 281.4C108.609 281.635 108.305 281.795 107.976 281.862C107.646 281.93 107.304 281.901 106.99 281.78C107.107 281.936 107.17 282.125 107.17 282.32C107.17 282.515 107.107 282.704 106.99 282.86C106.867 283.007 106.714 283.126 106.542 283.208C106.369 283.291 106.181 283.336 105.99 283.34C105.619 283.337 105.254 283.251 104.92 283.09C105.395 284.075 105.592 285.171 105.49 286.26C105.148 288.379 104.006 290.287 102.3 291.59C101.907 292.019 101.443 292.377 100.93 292.65C99.6862 293.244 98.2971 293.467 96.9299 293.29L96.6899 298.17C98.9499 299.9 101.33 299.6 104.21 298.92V295.13C104.993 295.311 105.797 295.388 106.6 295.36C107.003 295.342 107.399 295.244 107.765 295.072C108.13 294.901 108.458 294.659 108.73 294.36C109.158 293.772 109.426 293.083 109.51 292.36C109.755 291.069 109.905 289.763 109.96 288.45C109.971 287.542 109.934 286.634 109.85 285.73V285.73Z" fill="#8F5251"/>
<path d="M115.06 315.39V321.21C106.61 321.07 103.76 304.86 109.06 299.77C109.06 299.77 107.61 299.35 105.48 298.85C104.465 299.805 103.23 300.493 101.885 300.854C100.54 301.215 99.1261 301.238 97.77 300.92C97.1205 300.779 96.5117 300.492 95.99 300.08C95.7013 299.788 95.4934 299.427 95.3865 299.031C95.2795 298.634 95.2773 298.217 95.38 297.82C92.69 297.7 90.32 297.47 88.85 298.45C80.98 303.68 88.97 321.12 86.85 336.38C97.12 344.43 111.29 349.11 116.35 340.96V316.63L115.06 315.39Z" fill="#8EC3FF"/>
<path opacity="0.1" d="M115.06 315.39V321.21C106.61 321.07 103.76 304.86 109.06 299.77C109.06 299.77 107.61 299.35 105.48 298.85C104.465 299.805 103.23 300.493 101.885 300.854C100.54 301.215 99.1261 301.238 97.77 300.92C97.1205 300.779 96.5117 300.492 95.99 300.08C95.7013 299.788 95.4934 299.427 95.3865 299.031C95.2795 298.634 95.2773 298.217 95.38 297.82C92.69 297.7 90.32 297.47 88.85 298.45C80.98 303.68 88.97 321.12 86.85 336.38C97.12 344.43 111.29 349.11 116.35 340.96V316.63L115.06 315.39Z" fill="white"/>
<path d="M92 321.75C95.0434 323.504 98.2238 325.009 101.51 326.25C104.147 327.377 106.973 327.994 109.84 328.07C112.211 328.091 114.522 327.325 116.41 325.89V321.73C114.517 323.156 112.21 323.922 109.84 323.91C106.975 323.825 104.15 323.208 101.51 322.09C98.2218 320.85 95.0411 319.341 92 317.58C90.2978 316.671 88.7324 315.526 87.35 314.18C86.6122 313.42 85.9981 312.55 85.53 311.6C85.67 313.24 85.87 314.97 86.09 316.77C86.4623 317.33 86.884 317.855 87.35 318.34C88.7347 319.686 90.2996 320.834 92 321.75V321.75Z" fill="white"/>
<path d="M101.52 332.7C98.2283 331.46 95.0442 329.952 92 328.19C90.2977 327.281 88.7323 326.136 87.35 324.79C87.212 324.651 87.0818 324.504 86.96 324.35C87.09 325.84 87.19 327.35 87.24 328.83L87.35 328.96C88.7349 330.303 90.2999 331.448 92 332.36C95.0431 334.117 98.2235 335.626 101.51 336.87C104.15 337.988 106.974 338.605 109.84 338.69C112.209 338.702 114.517 337.936 116.41 336.51V332.34C114.517 333.766 112.209 334.532 109.84 334.52C106.977 334.438 104.155 333.821 101.52 332.7V332.7Z" fill="white"/>
<path d="M103.79 291.47V289.63C103.83 288.85 104.055 288.09 104.446 287.414C104.837 286.737 105.384 286.164 106.04 285.74C106.278 285.565 106.561 285.462 106.855 285.445C107.15 285.427 107.443 285.495 107.7 285.64C106.842 284.933 105.863 284.387 104.81 284.03C104.563 283.939 104.297 283.909 104.035 283.944C103.774 283.979 103.525 284.077 103.31 284.23C102.654 284.654 102.107 285.227 101.716 285.904C101.325 286.58 101.1 287.34 101.06 288.12V290C101.027 290.29 101.079 290.584 101.21 290.846C101.342 291.107 101.547 291.324 101.8 291.47C102.653 292.142 103.608 292.673 104.63 293.04V293.04C104.334 292.91 104.091 292.685 103.938 292.4C103.786 292.116 103.734 291.788 103.79 291.47V291.47Z" fill="#8EC3FF"/>
<path opacity="0.2" d="M103.79 291.47V289.63C103.83 288.85 104.055 288.09 104.446 287.414C104.837 286.737 105.384 286.164 106.04 285.74C106.278 285.565 106.561 285.462 106.855 285.445C107.15 285.427 107.443 285.495 107.7 285.64C106.842 284.933 105.863 284.387 104.81 284.03C104.563 283.939 104.297 283.909 104.035 283.944C103.774 283.979 103.525 284.077 103.31 284.23C102.654 284.654 102.107 285.227 101.716 285.904C101.325 286.58 101.1 287.34 101.06 288.12V290C101.027 290.29 101.079 290.584 101.21 290.846C101.342 291.107 101.547 291.324 101.8 291.47C102.653 292.142 103.608 292.673 104.63 293.04V293.04C104.334 292.91 104.091 292.685 103.938 292.4C103.786 292.116 103.734 291.788 103.79 291.47V291.47Z" fill="white"/>
<path d="M108.29 287C108.316 286.737 108.275 286.473 108.172 286.23C108.069 285.987 107.907 285.774 107.7 285.61C107.443 285.465 107.15 285.397 106.855 285.415C106.561 285.432 106.278 285.535 106.04 285.71C105.384 286.134 104.837 286.707 104.446 287.384C104.055 288.06 103.83 288.82 103.79 289.6V291.44C103.749 291.75 103.809 292.065 103.962 292.337C104.116 292.61 104.354 292.825 104.64 292.95C104.879 293.018 105.13 293.032 105.376 292.993C105.621 292.953 105.855 292.86 106.06 292.72C106.711 292.291 107.252 291.716 107.641 291.04C108.03 290.365 108.256 289.608 108.3 288.83L108.29 287Z" fill="#8EC3FF"/>
<path opacity="0.2" d="M108.29 287C108.316 286.737 108.275 286.473 108.172 286.23C108.069 285.987 107.907 285.774 107.7 285.61C107.443 285.465 107.15 285.397 106.855 285.415C106.561 285.432 106.278 285.535 106.04 285.71C105.384 286.134 104.837 286.707 104.446 287.384C104.055 288.06 103.83 288.82 103.79 289.6V291.44C103.749 291.75 103.809 292.065 103.962 292.337C104.116 292.61 104.354 292.825 104.64 292.95C104.879 293.018 105.13 293.032 105.376 292.993C105.621 292.953 105.855 292.86 106.06 292.72C106.711 292.291 107.252 291.716 107.641 291.04C108.03 290.365 108.256 289.608 108.3 288.83L108.29 287Z" fill="black"/>
<path d="M94.4001 277.82C96.3625 278.155 98.1855 279.053 99.6481 280.404C101.111 281.754 102.15 283.5 102.64 285.43C103.184 284.864 103.878 284.466 104.64 284.28C102.56 277.28 97.2501 276.28 95.4701 275.92C94.4801 275.8 94.0001 277.34 94.4001 277.82Z" fill="#8EC3FF"/>
<path d="M382.76 137C382.76 137 377.43 103.46 383.76 101.73C381.32 102.39 380.35 105.55 379.61 110.35C377.83 119.9 381.2 141.11 381.2 141.11L400 129.54C400 129.54 399.57 128.61 398.84 127.13L382.76 137Z" fill="#8EC3FF"/>
<path d="M382.76 137L398.86 127.12L401.63 125.41C401.63 125.41 389.85 100 383.72 101.74C377.43 103.47 382.76 137 382.76 137Z" fill="#8EC3FF"/>
<path opacity="0.2" d="M382.76 137L398.86 127.12L401.63 125.41C401.63 125.41 389.85 100 383.72 101.74C377.43 103.47 382.76 137 382.76 137Z" fill="black"/>
<path d="M281 173.53C280.913 171.855 280.429 170.225 279.59 168.774C278.75 167.322 277.578 166.091 276.17 165.18C275.73 164.876 275.229 164.672 274.702 164.582C274.176 164.492 273.635 164.519 273.12 164.66V164.66H273.07C272.07 165 248.66 172.9 236.61 181.66L247.61 199.54C260.28 192.54 279.76 176.54 279.76 176.54C280.194 176.176 280.534 175.712 280.75 175.187C280.966 174.663 281.052 174.095 281 173.53V173.53Z" fill="#8EC3FF"/>
<path opacity="0.2" d="M281 173.53C280.913 171.855 280.429 170.225 279.59 168.774C278.75 167.322 277.578 166.091 276.17 165.18C275.73 164.876 275.229 164.672 274.702 164.582C274.176 164.492 273.635 164.519 273.12 164.66V164.66H273.07C272.07 165 248.66 172.9 236.61 181.66L247.61 199.54C260.28 192.54 279.76 176.54 279.76 176.54C280.194 176.176 280.534 175.712 280.75 175.187C280.966 174.663 281.052 174.095 281 173.53V173.53Z" fill="black"/>
<path d="M255.15 192.5C255.15 187.25 251.46 180.83 246.89 178.19C245.996 177.657 245.014 177.288 243.99 177.1C243.32 177.47 242.66 177.84 241.99 178.22C243.494 177.936 245.05 178.255 246.32 179.11C250.6 181.58 254.07 187.59 254.05 192.5C254.12 193.876 253.726 195.235 252.93 196.36L254.72 195.19C255.005 194.322 255.151 193.414 255.15 192.5V192.5Z" fill="white"/>
<path d="M241.86 182.24C237.75 179.86 234.4 181.77 234.38 186.5C234.518 189.081 235.264 191.593 236.557 193.831C237.85 196.07 239.653 197.971 241.82 199.38C245.93 201.76 249.28 199.84 249.3 195.11C249.162 192.53 248.416 190.02 247.123 187.783C245.83 185.546 244.027 183.647 241.86 182.24V182.24ZM247.05 193.82C247.05 197.12 244.7 198.46 241.82 196.82C240.308 195.834 239.049 194.505 238.147 192.941C237.246 191.377 236.726 189.623 236.63 187.82V187.82C236.629 187.434 236.666 187.049 236.74 186.67C237.23 184.22 239.34 183.38 241.86 184.83C243.396 185.794 244.662 187.133 245.54 188.72C246.007 189.524 246.38 190.38 246.65 191.27C246.907 192.103 247.042 192.968 247.05 193.84V193.82Z" fill="#8EC3FF"/>
<path d="M240.08 185.56C240.079 185.177 240.116 184.795 240.19 184.42C240.19 184.34 240.24 184.27 240.26 184.19C239.865 184.087 239.452 184.071 239.05 184.143C238.648 184.215 238.266 184.373 237.932 184.607C237.597 184.841 237.317 185.145 237.111 185.497C236.905 185.85 236.779 186.243 236.74 186.65C236.666 187.029 236.629 187.414 236.63 187.8V187.8C236.726 189.603 237.246 191.357 238.147 192.921C239.049 194.485 240.308 195.814 241.82 196.8C244.26 198.2 246.3 197.46 246.88 195.19C246.316 195.067 245.776 194.854 245.28 194.56C243.765 193.576 242.504 192.248 241.6 190.684C240.696 189.12 240.175 187.364 240.08 185.56V185.56Z" fill="#384850"/>
<path d="M246.65 191.25C246.38 190.36 246.007 189.504 245.54 188.7C244.662 187.113 243.396 185.774 241.86 184.81C241.361 184.523 240.822 184.314 240.26 184.19C240.26 184.27 240.26 184.34 240.19 184.42C240.116 184.795 240.079 185.177 240.08 185.56V185.56C240.175 187.364 240.696 189.12 241.6 190.684C242.504 192.248 243.765 193.576 245.28 194.56C245.776 194.854 246.316 195.067 246.88 195.19C246.997 194.743 247.054 194.282 247.05 193.82C247.042 192.948 246.907 192.083 246.65 191.25Z" fill="#263238"/>
<path d="M258.82 147.51C258.732 145.835 258.25 144.205 257.412 142.752C256.575 141.299 255.405 140.065 254 139.15C253.559 138.848 253.058 138.646 252.532 138.556C252.005 138.466 251.466 138.491 250.95 138.63V138.63C249.95 138.97 226.53 146.88 214.48 155.63L225.48 173.51C238.16 166.51 257.64 150.51 257.64 150.51C258.064 150.142 258.393 149.677 258.598 149.155C258.804 148.632 258.88 148.068 258.82 147.51Z" fill="#8EC3FF"/>
<path opacity="0.2" d="M258.82 147.51C258.732 145.835 258.25 144.205 257.412 142.752C256.575 141.299 255.405 140.065 254 139.15C253.559 138.848 253.058 138.646 252.532 138.556C252.005 138.466 251.466 138.491 250.95 138.63V138.63C249.95 138.97 226.53 146.88 214.48 155.63L225.48 173.51C238.16 166.51 257.64 150.51 257.64 150.51C258.064 150.142 258.393 149.677 258.598 149.155C258.804 148.632 258.88 148.068 258.82 147.51Z" fill="black"/>
<path d="M233 166.48C233 161.22 229.31 154.8 224.73 152.16C223.841 151.625 222.861 151.259 221.84 151.08L219.84 152.19C221.349 151.905 222.909 152.228 224.18 153.09C228.45 155.56 231.92 161.56 231.91 166.48C231.976 167.854 231.578 169.21 230.78 170.33L232.58 169.17C232.86 168.301 233.002 167.393 233 166.48V166.48Z" fill="white"/>
<path d="M219.67 156.22C215.55 153.84 212.2 155.75 212.19 160.48C212.328 163.059 213.072 165.568 214.364 167.805C215.655 170.041 217.456 171.941 219.62 173.35C223.74 175.73 227.09 173.81 227.1 169.09C226.967 166.51 226.224 163.999 224.933 161.761C223.641 159.524 221.838 157.625 219.67 156.22ZM224.86 167.79C224.86 171.09 222.51 172.43 219.63 170.79C218.116 169.805 216.856 168.477 215.952 166.913C215.048 165.349 214.527 163.594 214.43 161.79C214.434 161.408 214.471 161.026 214.54 160.65C215.04 158.2 217.14 157.35 219.66 158.81C221.198 159.768 222.465 161.103 223.34 162.69C223.805 163.497 224.181 164.352 224.46 165.24C224.717 166.073 224.852 166.938 224.86 167.81V167.79Z" fill="#8EC3FF"/>
<path d="M217.89 159.54C217.888 159.154 217.925 158.769 218 158.39C218.019 158.315 218.042 158.242 218.07 158.17C217.674 158.063 217.26 158.044 216.856 158.115C216.452 158.185 216.068 158.343 215.732 158.578C215.396 158.812 215.115 159.117 214.909 159.472C214.703 159.826 214.577 160.222 214.54 160.63C214.471 161.006 214.434 161.388 214.43 161.77C214.527 163.574 215.048 165.329 215.952 166.893C216.856 168.457 218.116 169.785 219.63 170.77C222.07 172.18 224.11 171.43 224.69 169.17C224.122 169.045 223.579 168.829 223.08 168.53C221.567 167.547 220.308 166.221 219.406 164.658C218.503 163.096 217.984 161.342 217.89 159.54V159.54Z" fill="#384850"/>
<path d="M224.46 165.22C224.181 164.332 223.805 163.477 223.34 162.67C222.465 161.083 221.198 159.748 219.66 158.79C219.169 158.495 218.631 158.285 218.07 158.17C218.042 158.242 218.019 158.315 218 158.39C217.925 158.769 217.888 159.154 217.89 159.54V159.54C217.983 161.343 218.501 163.099 219.403 164.664C220.305 166.228 221.565 167.556 223.08 168.54C223.579 168.839 224.122 169.055 224.69 169.18C224.802 168.728 224.859 168.265 224.86 167.8C224.853 166.925 224.718 166.056 224.46 165.22Z" fill="#263238"/>
<path d="M267.23 199.1C233.49 156.94 208.12 120.1 210.08 103.62C209.571 106.702 209.571 109.848 210.08 112.93V112.93C212.08 130.99 236.08 165.33 267.2 204.24L315.64 174.12V169L267.23 199.1Z" fill="#8EC3FF"/>
<path d="M267.23 199.1L315.67 169C281.89 139.45 232.97 91.78 218.57 94.85C213.92 95.85 211.28 98.34 210.36 102.12V102.24C210.244 102.7 210.161 103.168 210.11 103.64C208.12 120.14 233.49 156.94 267.23 199.1Z" fill="#8EC3FF"/>
<path opacity="0.2" d="M267.23 199.1L315.67 169C281.89 139.45 232.97 91.78 218.57 94.85C213.92 95.85 211.28 98.34 210.36 102.12V102.24C210.244 102.7 210.161 103.168 210.11 103.64C208.12 120.14 233.49 156.94 267.23 199.1Z" fill="black"/>
<path d="M237.48 241.33C262.89 242.1 314.72 215.13 334.71 203.59C354.7 192.05 408.53 153.59 421.05 137.09C423.78 133.46 423.39 124.39 421.05 122.09C418.71 119.79 413.92 117.94 408.61 118.72C403.3 119.5 338.52 143.31 293.44 169C248.36 194.69 236.7 204.89 229.7 215C222.7 225.11 216.34 241.07 237.48 241.33Z" fill="#8EC3FF"/>
<path opacity="0.05" d="M237.48 241.33C262.89 242.1 314.72 215.13 334.71 203.59C354.7 192.05 408.53 153.59 421.05 137.09C423.78 133.46 423.39 124.39 421.05 122.09C418.71 119.79 413.92 117.94 408.61 118.72C403.3 119.5 338.52 143.31 293.44 169C248.36 194.69 236.7 204.89 229.7 215C222.7 225.11 216.34 241.07 237.48 241.33Z" fill="black"/>
<path d="M421.05 122.05C418.72 119.72 413.92 117.9 408.61 118.68C405.99 119.07 388.91 125.06 366.87 134.11C368.404 134.023 369.944 134.107 371.46 134.36C375.29 135.02 379.07 137.24 380.58 140.83C382.83 146.15 379.4 152.24 375.07 156.07C370.74 159.9 365.37 162.61 361.84 167.19C357.62 172.68 356.72 179.92 354.9 186.61C354.423 188.407 353.812 190.165 353.07 191.87C377.38 175.45 411.42 149.81 421.07 137.09C423.78 133.46 423.39 124.39 421.05 122.05Z" fill="#8EC3FF"/>
<path opacity="0.2" d="M421.05 122.05C418.72 119.72 413.92 117.9 408.61 118.68C405.99 119.07 388.91 125.06 366.87 134.11C368.404 134.023 369.944 134.107 371.46 134.36C375.29 135.02 379.07 137.24 380.58 140.83C382.83 146.15 379.4 152.24 375.07 156.07C370.74 159.9 365.37 162.61 361.84 167.19C357.62 172.68 356.72 179.92 354.9 186.61C354.423 188.407 353.812 190.165 353.07 191.87C377.38 175.45 411.42 149.81 421.07 137.09C423.78 133.46 423.39 124.39 421.05 122.05Z" fill="white"/>
<path d="M358.22 217.16C358.131 215.484 357.647 213.854 356.808 212.401C355.968 210.948 354.797 209.714 353.39 208.8C352.955 208.506 352.463 208.308 351.946 208.218C351.429 208.128 350.898 208.15 350.39 208.28V208.28C349.39 208.63 325.97 216.53 313.92 225.28L324.92 243.16C337.59 236.16 357.07 220.16 357.08 220.16C357.497 219.788 357.818 219.321 358.016 218.799C358.215 218.277 358.285 217.715 358.22 217.16V217.16Z" fill="#8EC3FF"/>
<path opacity="0.2" d="M358.22 217.16C358.131 215.484 357.647 213.854 356.808 212.401C355.968 210.948 354.797 209.714 353.39 208.8C352.955 208.506 352.463 208.308 351.946 208.218C351.429 208.128 350.898 208.15 350.39 208.28V208.28C349.39 208.63 325.97 216.53 313.92 225.28L324.92 243.16C337.59 236.16 357.07 220.16 357.08 220.16C357.497 219.788 357.818 219.321 358.016 218.799C358.215 218.277 358.285 217.715 358.22 217.16V217.16Z" fill="black"/>
<path d="M332.36 236.13C332.36 230.88 328.66 224.45 324.09 221.81C323.198 221.281 322.22 220.916 321.2 220.73L319.2 221.84C320.705 221.56 322.261 221.883 323.53 222.74C327.81 225.21 331.28 231.21 331.27 236.13C331.336 237.504 330.938 238.86 330.14 239.98L331.94 238.82C332.211 237.949 332.352 237.042 332.36 236.13Z" fill="white"/>
<path d="M319.07 225.87C314.95 223.49 311.6 225.4 311.59 230.13C311.722 232.708 312.463 235.217 313.75 237.454C315.038 239.691 316.837 241.591 319 243C323.12 245.38 326.47 243.47 326.48 238.74C326.346 236.163 325.605 233.653 324.317 231.417C323.029 229.18 321.232 227.28 319.07 225.87V225.87ZM324.25 237.44C324.25 240.75 321.91 242.09 319.03 240.44C317.514 239.457 316.253 238.129 315.349 236.565C314.445 235 313.924 233.244 313.83 231.44V231.44C313.828 231.054 313.865 230.669 313.94 230.29C314.43 227.84 316.54 226.99 319.06 228.45C320.598 229.408 321.865 230.743 322.74 232.33C323.206 233.135 323.579 233.99 323.85 234.88C324.11 235.712 324.245 236.578 324.25 237.45V237.44Z" fill="#8EC3FF"/>
<path d="M317.29 229.19C317.285 228.804 317.319 228.419 317.39 228.04C317.39 227.96 317.44 227.9 317.46 227.82C317.065 227.715 316.651 227.697 316.249 227.769C315.846 227.84 315.464 227.998 315.129 228.232C314.793 228.467 314.513 228.771 314.308 229.125C314.103 229.479 313.977 229.873 313.94 230.28C313.865 230.659 313.828 231.044 313.83 231.43C313.924 233.234 314.445 234.99 315.349 236.555C316.253 238.119 317.514 239.447 319.03 240.43C321.46 241.84 323.51 241.09 324.09 238.83C323.523 238.708 322.979 238.496 322.48 238.2C320.966 237.213 319.707 235.883 318.805 234.317C317.903 232.751 317.384 230.994 317.29 229.19V229.19Z" fill="#384850"/>
<path d="M323.85 234.87C323.579 233.98 323.206 233.125 322.74 232.32C321.865 230.733 320.598 229.398 319.06 228.44C318.564 228.147 318.024 227.938 317.46 227.82C317.46 227.9 317.46 227.96 317.39 228.04C317.319 228.419 317.285 228.804 317.29 229.19V229.19C317.386 230.993 317.906 232.747 318.808 234.311C319.709 235.875 320.968 237.204 322.48 238.19C322.979 238.486 323.523 238.699 324.09 238.82C324.198 238.368 324.252 237.905 324.25 237.44C324.245 236.568 324.111 235.702 323.85 234.87V234.87Z" fill="#263238"/>
<path d="M402.36 229.9C402.272 228.225 401.79 226.595 400.952 225.142C400.115 223.689 398.945 222.455 397.54 221.54C397.099 221.238 396.598 221.036 396.072 220.946C395.545 220.856 395.006 220.881 394.49 221.02V221.02H394.44C393.44 221.36 370.02 229.27 357.98 238.02L368.98 255.9C381.65 248.9 401.13 232.9 401.13 232.9C401.563 232.537 401.901 232.075 402.116 231.552C402.33 231.029 402.414 230.462 402.36 229.9Z" fill="#8EC3FF"/>
<path opacity="0.2" d="M402.36 229.9C402.272 228.225 401.79 226.595 400.952 225.142C400.115 223.689 398.945 222.455 397.54 221.54C397.099 221.238 396.598 221.036 396.072 220.946C395.545 220.856 395.006 220.881 394.49 221.02V221.02H394.44C393.44 221.36 370.02 229.27 357.98 238.02L368.98 255.9C381.65 248.9 401.13 232.9 401.13 232.9C401.563 232.537 401.901 232.075 402.116 231.552C402.33 231.029 402.414 230.462 402.36 229.9Z" fill="black"/>
<path d="M376.5 248.87C376.5 243.61 372.81 237.19 368.24 234.55C367.348 234.015 366.365 233.649 365.34 233.47L363.34 234.58C364.849 234.294 366.409 234.617 367.68 235.48C369.932 236.946 371.806 238.922 373.149 241.249C374.492 243.576 375.267 246.187 375.41 248.87C375.481 250.244 375.083 251.602 374.28 252.72L376.08 251.56C376.36 250.691 376.502 249.783 376.5 248.87V248.87Z" fill="white"/>
<path d="M363.21 238.61C359.09 236.23 355.75 238.14 355.73 242.87C355.87 245.448 356.616 247.957 357.907 250.193C359.198 252.429 360.997 254.329 363.16 255.74C367.28 258.12 370.63 256.2 370.64 251.48C370.507 248.9 369.764 246.389 368.473 244.151C367.181 241.914 365.378 240.015 363.21 238.61ZM368.4 250.18C368.4 253.48 366.05 254.82 363.17 253.18C361.656 252.196 360.396 250.867 359.494 249.303C358.592 247.739 358.073 245.983 357.98 244.18V244.18C357.979 243.797 358.016 243.415 358.09 243.04C358.58 240.59 360.68 239.74 363.21 241.2C364.748 242.158 366.015 243.493 366.89 245.08C367.356 245.885 367.729 246.74 368 247.63C368.257 248.463 368.392 249.328 368.4 250.2V250.18Z" fill="#8EC3FF"/>
<path d="M361.43 241.93C361.428 241.544 361.465 241.159 361.54 240.78C361.54 240.7 361.54 240.64 361.61 240.56C361.215 240.455 360.801 240.437 360.399 240.509C359.996 240.58 359.614 240.738 359.279 240.972C358.943 241.207 358.663 241.511 358.458 241.865C358.253 242.219 358.127 242.613 358.09 243.02C358.016 243.395 357.979 243.777 357.98 244.16V244.16C358.073 245.963 358.592 247.719 359.494 249.283C360.396 250.847 361.656 252.176 363.17 253.16C365.61 254.57 367.65 253.82 368.23 251.56C367.663 251.433 367.119 251.217 366.62 250.92C365.107 249.937 363.848 248.611 362.946 247.048C362.044 245.486 361.524 243.732 361.43 241.93V241.93Z" fill="#384850"/>
<path d="M368 247.61C367.729 246.72 367.356 245.865 366.89 245.06C366.015 243.473 364.748 242.138 363.21 241.18C362.715 240.885 362.174 240.675 361.61 240.56C361.61 240.64 361.56 240.7 361.54 240.78C361.465 241.159 361.428 241.544 361.43 241.93V241.93C361.522 243.733 362.041 245.489 362.943 247.054C363.845 248.618 365.105 249.946 366.62 250.93C367.119 251.227 367.663 251.443 368.23 251.57C368.347 251.119 368.404 250.655 368.4 250.19C368.393 249.315 368.258 248.446 368 247.61V247.61Z" fill="#263238"/>
<path d="M459.32 242.23C459.444 242.619 459.417 243.041 459.245 243.411C459.072 243.782 458.767 244.074 458.39 244.23C444.91 252.01 377.72 239.23 297.39 214.41V217.99C377.74 242.82 444.93 255.58 458.39 247.8C458.603 247.682 458.796 247.53 458.96 247.35V247.35C460 246.35 460.1 244.59 459.32 242.23Z" fill="#8EC3FF"/>
<path d="M458.39 244.18C458.767 244.024 459.072 243.732 459.245 243.361C459.417 242.991 459.444 242.569 459.32 242.18C456.24 230.41 344 187.42 344 187.42L297.33 214.36C377.72 239.19 444.91 252 458.39 244.18Z" fill="#8EC3FF"/>
<path opacity="0.2" d="M458.39 244.18C458.767 244.024 459.072 243.732 459.245 243.361C459.417 242.991 459.444 242.569 459.32 242.18C456.24 230.41 344 187.42 344 187.42L297.33 214.36C377.72 239.19 444.91 252 458.39 244.18Z" fill="black"/>
<path d="M272.54 228.7L277.54 225.79C277.784 225.654 277.998 225.471 278.169 225.251C278.341 225.031 278.467 224.779 278.54 224.51C279.31 221.56 279.9 214.65 278.97 210.68C278.941 210.518 278.872 210.365 278.769 210.236C278.666 210.107 278.533 210.005 278.382 209.94C278.231 209.874 278.065 209.847 277.901 209.861C277.737 209.875 277.578 209.93 277.44 210.02L272.04 213.14C271.669 213.358 271.374 213.686 271.195 214.077C271.016 214.469 270.962 214.906 271.04 215.33C271.659 219.408 271.642 223.557 270.99 227.63C270.937 227.829 270.946 228.04 271.018 228.234C271.089 228.427 271.218 228.594 271.388 228.711C271.558 228.828 271.759 228.89 271.966 228.888C272.172 228.886 272.373 228.82 272.54 228.7Z" fill="#8EC3FF"/>
<path d="M364.63 177.39L369.63 174.47C369.873 174.334 370.087 174.15 370.259 173.931C370.43 173.711 370.556 173.459 370.63 173.19C371.4 170.24 371.99 163.33 371.06 159.36C371.03 159.198 370.961 159.045 370.859 158.916C370.756 158.787 370.623 158.685 370.472 158.62C370.32 158.554 370.155 158.527 369.991 158.541C369.826 158.555 369.668 158.61 369.53 158.7L364.13 161.82C363.757 162.036 363.46 162.363 363.281 162.756C363.102 163.148 363.049 163.586 363.13 164.01C363.744 168.088 363.727 172.237 363.08 176.31C363.024 176.51 363.031 176.722 363.101 176.918C363.171 177.114 363.3 177.282 363.471 177.401C363.641 177.52 363.844 177.583 364.052 177.581C364.26 177.579 364.462 177.512 364.63 177.39Z" fill="#8EC3FF"/>
<path opacity="0.2" d="M272.54 228.7L277.54 225.79C277.784 225.654 277.998 225.471 278.169 225.251C278.341 225.031 278.467 224.779 278.54 224.51C279.31 221.56 279.9 214.65 278.97 210.68C278.941 210.518 278.872 210.365 278.769 210.236C278.666 210.107 278.533 210.005 278.382 209.94C278.231 209.874 278.065 209.847 277.901 209.861C277.737 209.875 277.578 209.93 277.44 210.02L272.04 213.14C271.669 213.358 271.374 213.686 271.195 214.077C271.016 214.469 270.962 214.906 271.04 215.33C271.659 219.408 271.642 223.557 270.99 227.63C270.937 227.829 270.946 228.04 271.018 228.234C271.089 228.427 271.218 228.594 271.388 228.711C271.558 228.828 271.759 228.89 271.966 228.888C272.172 228.886 272.373 228.82 272.54 228.7Z" fill="black"/>
<path opacity="0.2" d="M364.63 177.39L369.63 174.47C369.873 174.334 370.087 174.15 370.259 173.931C370.43 173.711 370.556 173.459 370.63 173.19C371.4 170.24 371.99 163.33 371.06 159.36C371.03 159.198 370.961 159.045 370.859 158.916C370.756 158.787 370.623 158.685 370.472 158.62C370.32 158.554 370.155 158.527 369.991 158.541C369.826 158.555 369.668 158.61 369.53 158.7L364.13 161.82C363.757 162.036 363.46 162.363 363.281 162.756C363.102 163.148 363.049 163.586 363.13 164.01C363.744 168.088 363.727 172.237 363.08 176.31C363.024 176.51 363.031 176.722 363.101 176.918C363.171 177.114 363.3 177.282 363.471 177.401C363.641 177.52 363.844 177.583 364.052 177.581C364.26 177.579 364.462 177.512 364.63 177.39Z" fill="black"/>
<path d="M275.65 216.17C276.89 215.45 277.9 216.03 277.91 217.46V219.29C277.87 220.069 277.647 220.828 277.257 221.504C276.868 222.18 276.324 222.755 275.67 223.18C274.42 223.9 273.41 223.32 273.4 221.89V220.06C273.44 219.28 273.665 218.52 274.056 217.844C274.447 217.167 274.993 216.594 275.65 216.17Z" fill="#384850"/>
<path d="M283.29 211.76C284.53 211.05 285.54 211.62 285.55 213.05V214.88C285.51 215.659 285.286 216.418 284.897 217.094C284.508 217.77 283.964 218.345 283.31 218.77C282.06 219.49 281.05 218.92 281.04 217.49V215.65C281.08 214.87 281.305 214.11 281.696 213.434C282.087 212.757 282.633 212.184 283.29 211.76Z" fill="#384850"/>
<path d="M290.92 207.35C292.16 206.64 293.18 207.21 293.18 208.64V210.47C293.134 211.249 292.907 212.007 292.517 212.682C292.126 213.357 291.582 213.932 290.93 214.36C289.69 215.08 288.67 214.51 288.67 213.08V211.24C288.715 210.461 288.943 209.703 289.333 209.028C289.724 208.352 290.267 207.778 290.92 207.35Z" fill="#384850"/>
<path d="M298.56 203C299.8 202.28 300.82 202.85 300.82 204.28V206.12C300.773 206.897 300.545 207.653 300.154 208.326C299.764 209 299.221 209.573 298.57 210C297.33 210.72 296.31 210.15 296.31 208.72V206.89C296.355 206.111 296.582 205.353 296.973 204.678C297.364 204.003 297.907 203.428 298.56 203V203Z" fill="#384850"/>
<path d="M306.2 198.54C307.44 197.82 308.45 198.39 308.46 199.82V201.66C308.42 202.439 308.197 203.198 307.807 203.874C307.418 204.55 306.874 205.125 306.22 205.55C304.98 206.26 303.96 205.69 303.95 204.26V202.43C303.995 201.651 304.223 200.893 304.613 200.218C305.004 199.542 305.547 198.968 306.2 198.54V198.54Z" fill="#384850"/>
<path d="M313.84 194.13C315.08 193.41 316.09 193.99 316.1 195.42V197.25C316.06 198.029 315.837 198.788 315.447 199.464C315.058 200.14 314.514 200.715 313.86 201.14C312.61 201.86 311.6 201.28 311.59 199.85V198C311.633 197.223 311.859 196.467 312.25 195.795C312.641 195.122 313.186 194.552 313.84 194.13V194.13Z" fill="#384850"/>
<path d="M321.48 189.72C322.71 189.01 323.73 189.58 323.73 191.01V192.84C323.686 193.618 323.46 194.375 323.071 195.05C322.682 195.726 322.141 196.301 321.49 196.73C320.24 197.45 319.22 196.88 319.22 195.45V193.61C319.267 192.83 319.495 192.072 319.888 191.396C320.28 190.721 320.826 190.147 321.48 189.72Z" fill="#384850"/>
<path d="M329.11 185.31C330.35 184.6 331.37 185.17 331.37 186.6V188.43C331.324 189.209 331.097 189.967 330.707 190.642C330.316 191.317 329.772 191.892 329.12 192.32C327.88 193.04 326.86 192.47 326.86 191.04V189.2C326.905 188.421 327.133 187.663 327.523 186.988C327.914 186.313 328.457 185.738 329.11 185.31V185.31Z" fill="#384850"/>
<path d="M336.75 180.91C337.99 180.19 339.01 180.76 339.01 182.19V184C338.971 184.778 338.748 185.536 338.358 186.21C337.969 186.885 337.424 187.457 336.77 187.88C335.53 188.6 334.51 188.03 334.51 186.6V184.8C334.554 184.022 334.78 183.265 335.169 182.589C335.558 181.914 336.099 181.339 336.75 180.91V180.91Z" fill="#384850"/>
<path d="M344.39 176.5C345.63 175.78 346.64 176.35 346.65 177.79V179.62C346.61 180.399 346.387 181.158 345.997 181.834C345.608 182.51 345.064 183.085 344.41 183.51C343.16 184.22 342.15 183.65 342.14 182.22V180.39C342.18 179.61 342.405 178.85 342.796 178.174C343.187 177.497 343.733 176.924 344.39 176.5V176.5Z" fill="#384850"/>
<path d="M352 172.09C353.23 171.38 354.25 171.95 354.25 173.38V175.21C354.205 175.988 353.98 176.745 353.591 177.42C353.202 178.096 352.66 178.671 352.01 179.1C350.76 179.82 349.74 179.25 349.74 177.81V176C349.778 175.215 350.003 174.451 350.396 173.771C350.789 173.091 351.339 172.515 352 172.09V172.09Z" fill="#384850"/>
<path d="M359.66 167.68C360.9 166.97 361.92 167.54 361.92 168.97V170.8C361.874 171.579 361.647 172.337 361.257 173.012C360.866 173.688 360.322 174.262 359.67 174.69C358.43 175.41 357.41 174.84 357.41 173.41V171.57C357.455 170.791 357.683 170.033 358.073 169.358C358.464 168.683 359.007 168.108 359.66 167.68V167.68Z" fill="#384850"/>
<path d="M367.3 163.27C368.54 162.56 369.56 163.13 369.56 164.56V166.4C369.513 167.177 369.285 167.933 368.894 168.606C368.504 169.28 367.961 169.853 367.31 170.28C366.07 171 365.05 170.43 365.05 169V167.16C365.095 166.381 365.322 165.623 365.713 164.948C366.104 164.272 366.647 163.698 367.3 163.27V163.27Z" fill="#384850"/>
<path d="M374.94 158.87C376.18 158.15 377.19 158.72 377.2 160.15V162C377.161 162.778 376.938 163.536 376.548 164.21C376.159 164.885 375.614 165.457 374.96 165.88C373.71 166.6 372.7 166.03 372.69 164.6V162.77C372.727 161.988 372.95 161.225 373.342 160.547C373.733 159.868 374.281 159.293 374.94 158.87V158.87Z" fill="#384850"/>
<path d="M410.6 75.59C410.689 75.6892 410.77 75.7963 410.84 75.91C410.367 75.073 409.68 74.3777 408.848 73.8959C408.016 73.4141 407.071 73.1635 406.11 73.17H405.95H405.75C398.12 74.17 388.15 106.07 388.15 132.17L390.36 133.54C390.36 104.33 402.87 67.86 410.6 75.59Z" fill="#8EC3FF"/>
<path d="M410.94 76.07L410.86 75.94C410.887 75.9812 410.91 76.0247 410.93 76.07H410.94Z" fill="black"/>
<path d="M410.93 76.07C410.91 76.0247 410.887 75.9812 410.86 75.94V75.94C410.79 75.8263 410.709 75.7192 410.62 75.62C402.89 67.89 390.38 104.36 390.38 133.62L412.16 121C413.23 103 413.37 80.41 410.93 76.07Z" fill="#8EC3FF"/>
<path opacity="0.2" d="M410.93 76.07C410.91 76.0247 410.887 75.9812 410.86 75.94V75.94C410.79 75.8263 410.709 75.7192 410.62 75.62C402.89 67.89 390.38 104.36 390.38 133.62L412.16 121C413.23 103 413.37 80.41 410.93 76.07Z" fill="black"/>
<path d="M454.48 146.64C454.86 147.27 454.65 147.85 453.72 148.35C447.72 151.56 409.39 153.69 390.72 149.69V152.39C409.39 156.39 447.72 154.26 453.72 151.04C453.951 150.923 454.161 150.768 454.34 150.58V150.58C455.25 149.71 455.41 148.31 454.48 146.64Z" fill="#8EC3FF"/>
<path d="M453.72 148.35C454.65 147.85 454.86 147.27 454.48 146.64C452.4 143.2 433.22 138.01 418.75 133.57L390.75 149.71C409.39 153.69 447.76 151.56 453.72 148.35Z" fill="#8EC3FF"/>
<path opacity="0.2" d="M453.72 148.35C454.65 147.85 454.86 147.27 454.48 146.64C452.4 143.2 433.22 138.01 418.75 133.57L390.75 149.71C409.39 153.69 447.76 151.56 453.72 148.35Z" fill="black"/>
<path d="M247.6 223.83C244.881 224.507 242.1 224.9 239.3 225C236.254 225.116 233.265 224.152 230.86 222.28C229.415 221.049 228.432 219.363 228.07 217.5C226.756 219.599 225.626 221.807 224.69 224.1C224.869 225.299 225.303 226.446 225.962 227.463C226.62 228.481 227.489 229.346 228.51 230C231.15 231.73 234.42 232.18 237.58 232.18C241.038 232.179 244.478 231.691 247.8 230.73C248.025 230.664 248.227 230.534 248.381 230.357C248.535 230.18 248.636 229.962 248.67 229.73C248.882 228.165 249.009 226.589 249.05 225.01C249.063 224.827 249.033 224.643 248.96 224.475C248.887 224.306 248.775 224.158 248.633 224.042C248.49 223.926 248.322 223.846 248.142 223.809C247.962 223.773 247.776 223.78 247.6 223.83Z" fill="#384850"/>
</svg>
