<svg width="271" height="271" viewBox="0 0 271 271" fill="none" xmlns="http://www.w3.org/2000/svg">
<path d="M39.5209 50.8125H231.479C237.718 50.8125 242.771 55.8655 242.771 62.1042V208.896C242.771 215.134 237.718 220.188 231.479 220.188H39.5209C33.2822 220.188 28.2292 215.134 28.2292 208.896V62.1042C28.2292 55.8655 33.2822 50.8125 39.5209 50.8125Z" fill="url(#paint0_linear_77_133)"/>
<path opacity="0.05" d="M124.208 163.729C124.208 145.019 109.044 129.854 90.3333 129.854C71.6231 129.854 56.4583 145.019 56.4583 163.729V180.667C56.4583 186.905 61.5114 191.958 67.75 191.958H112.917C119.155 191.958 124.208 186.905 124.208 180.667V163.729Z" fill="#797979"/>
<path opacity="0.07" d="M90.3333 132.677C73.1813 132.677 59.2812 146.577 59.2812 163.729C59.2812 164.373 59.2812 180.667 59.2812 180.667C59.2812 185.341 63.0753 189.135 67.75 189.135H112.917C117.591 189.135 121.385 185.341 121.385 180.667C121.385 180.667 121.385 164.311 121.385 163.729C121.385 146.577 107.485 132.677 90.3333 132.677Z" fill="#797979"/>
<path opacity="0.05" d="M203.25 118.562C201.184 118.562 148.858 118.562 146.792 118.562C140.553 118.562 135.5 123.616 135.5 129.854C135.5 136.093 140.553 141.146 146.792 141.146C148.858 141.146 201.184 141.146 203.25 141.146C209.489 141.146 214.542 136.093 214.542 129.854C214.542 123.616 209.489 118.562 203.25 118.562Z" fill="#797979"/>
<path opacity="0.07" d="M146.792 121.385C142.117 121.385 138.323 125.179 138.323 129.854C138.323 134.529 142.117 138.323 146.792 138.323C147.825 138.323 202.217 138.323 203.25 138.323C207.925 138.323 211.719 134.529 211.719 129.854C211.719 125.179 207.925 121.385 203.25 121.385C202.217 121.385 147.825 121.385 146.792 121.385Z" fill="#797979"/>
<path opacity="0.05" d="M242.771 159.213V208.896C242.771 215.106 237.69 220.188 231.479 220.188H152.72C152.55 218.324 152.438 216.461 152.438 214.542C152.438 197.435 159.664 181.062 172.029 169.375H146.792C140.581 169.375 135.5 164.294 135.5 158.083C135.5 151.873 140.581 146.792 146.792 146.792H203.25C207.315 146.792 211.041 148.994 213.017 152.494C213.525 152.438 214.034 152.438 214.542 152.438C224.704 152.438 234.302 154.865 242.771 159.213Z" fill="#797979"/>
<path opacity="0.07" d="M242.771 162.431V208.896C242.771 215.106 237.69 220.187 231.479 220.187H155.486C155.373 218.324 155.26 216.461 155.26 214.542C155.26 194.781 164.971 177.336 179.876 166.552H146.792C142.106 166.552 138.323 162.769 138.323 158.083C138.323 153.397 142.106 149.615 146.792 149.615H203.25C206.976 149.615 210.138 152.042 211.267 155.43C212.34 155.373 213.413 155.26 214.542 155.26C224.761 155.26 234.415 157.857 242.771 162.431Z" fill="#797979"/>
<path d="M90.3333 129.854C102.806 129.854 112.917 119.743 112.917 107.271C112.917 94.7984 102.806 84.6875 90.3333 84.6875C77.8609 84.6875 67.75 94.7984 67.75 107.271C67.75 119.743 77.8609 129.854 90.3333 129.854Z" fill="url(#paint1_radial_77_133)"/>
<path d="M152.437 28.2292H118.562C115.446 28.2292 112.917 30.7585 112.917 33.875V67.75C112.917 70.8665 115.446 73.3959 118.562 73.3959H152.437C155.554 73.3959 158.083 70.8665 158.083 67.75V33.875C158.083 30.7585 155.554 28.2292 152.437 28.2292ZM135.5 62.1042C132.383 62.1042 129.854 59.5749 129.854 56.4584C129.854 53.3419 132.383 50.8125 135.5 50.8125C138.616 50.8125 141.146 53.3419 141.146 56.4584C141.146 59.5749 138.616 62.1042 135.5 62.1042Z" fill="#A06B00"/>
<path d="M73.3958 107.271C73.3958 97.9157 80.9782 90.3333 90.3333 90.3333C99.6885 90.3333 107.271 97.9157 107.271 107.271C107.271 116.626 99.6885 124.208 90.3333 124.208C80.9782 124.208 73.3958 116.626 73.3958 107.271ZM90.3333 135.5C74.7452 135.5 62.1042 148.141 62.1042 163.729V180.667C62.1042 183.783 64.6335 186.312 67.75 186.312H112.917C116.033 186.312 118.562 183.783 118.562 180.667V163.729C118.562 148.141 105.921 135.5 90.3333 135.5Z" fill="#8A5D02"/>
<path d="M203.25 152.438H146.792C143.675 152.438 141.146 154.967 141.146 158.083C141.146 161.2 143.675 163.729 146.792 163.729H203.25C206.366 163.729 208.896 161.2 208.896 158.083C208.896 154.967 206.366 152.438 203.25 152.438Z" fill="#BC8413"/>
<path d="M203.25 124.208H146.792C143.675 124.208 141.146 126.738 141.146 129.854C141.146 132.971 143.675 135.5 146.792 135.5H203.25C206.366 135.5 208.896 132.971 208.896 129.854C208.896 126.738 206.366 124.208 203.25 124.208Z" fill="#BC8413"/>
<path opacity="0.05" d="M208.896 158.083C208.896 161.189 206.355 163.729 203.25 163.729H178.86C186.708 158.196 195.854 154.47 205.791 153.059C206.863 153.623 207.767 154.526 208.275 155.599C208.67 156.333 208.896 157.18 208.896 158.083Z" fill="black"/>
<path opacity="0.07" d="M208.896 158.083C208.896 161.189 206.355 163.729 203.25 163.729H184.054C191.281 159.382 199.467 156.503 208.275 155.599C208.67 156.333 208.896 157.18 208.896 158.083Z" fill="black"/>
<path d="M271 214.542C271 245.718 245.718 271 214.542 271C183.365 271 158.083 245.718 158.083 214.542C158.083 183.365 183.365 158.083 214.542 158.083C245.718 158.083 271 183.365 271 214.542Z" fill="url(#paint2_linear_77_133)"/>
<path d="M206.897 239.124L184.314 216.54C183.213 215.439 183.213 213.65 184.314 212.549L188.305 208.557C189.406 207.456 191.196 207.456 192.297 208.557L208.896 225.15L239.604 194.442C240.704 193.342 242.494 193.342 243.595 194.442L247.587 198.434C248.688 199.535 248.688 201.325 247.587 202.426L210.889 239.124C209.788 240.225 208.004 240.225 206.897 239.124Z" fill="white"/>
<defs>
<linearGradient id="paint0_linear_77_133" x1="119.867" y1="47.6734" x2="150.213" y2="218.149" gradientUnits="userSpaceOnUse">
<stop stop-color="#FFC107"/>
<stop offset="0.484" stop-color="#FFCE3C"/>
<stop offset="0.775" stop-color="#FFCD35"/>
<stop offset="1" stop-color="#FFD863"/>
</linearGradient>
<radialGradient id="paint1_radial_77_133" cx="0" cy="0" r="1" gradientUnits="userSpaceOnUse" gradientTransform="translate(90.3333 107.271) scale(22.5833)">
<stop stop-color="#A5A5A5"/>
<stop offset="0.009" stop-opacity="0.991"/>
<stop offset="1" stop-color="#797979" stop-opacity="0"/>
</radialGradient>
<linearGradient id="paint2_linear_77_133" x1="174.62" y1="174.62" x2="254.463" y2="254.463" gradientUnits="userSpaceOnUse">
<stop stop-color="#21AD64"/>
<stop offset="1" stop-color="#088242"/>
</linearGradient>
</defs>
</svg>
