<svg width="500" height="500" viewBox="0 0 500 500" fill="none" xmlns="http://www.w3.org/2000/svg">
<path d="M143.2 442.76C143.2 442.76 199.41 478.39 259.43 452.1C319.45 425.81 335.67 365.39 364.92 321.62C380.24 298.7 406.98 287.62 426.73 269.02C489.87 209.46 458.66 97 395.19 60.89C340.24 29.67 279.25 33.23 205.74 70.35C132.23 107.47 79.06 130.86 44.56 215.41C10.06 299.96 73 393.64 143.2 442.76Z" fill="white"/>
<path opacity="0.7" d="M143.2 442.76C143.2 442.76 199.41 478.39 259.43 452.1C319.45 425.81 335.67 365.39 364.92 321.62C380.24 298.7 406.98 287.62 426.73 269.02C489.87 209.46 458.66 97 395.19 60.89C340.24 29.67 279.25 33.23 205.74 70.35C132.23 107.47 79.06 130.86 44.56 215.41C10.06 299.96 73 393.64 143.2 442.76Z" fill="#65C8FF"/>
<path d="M405.81 210.08C406.052 208.912 406.173 207.723 406.17 206.53C406.172 203.443 405.365 200.409 403.831 197.73C402.297 195.052 400.089 192.821 397.426 191.26C394.763 189.699 391.737 188.862 388.651 188.832C385.564 188.802 382.523 189.581 379.83 191.09C378.514 184.058 375.033 177.614 369.875 172.657C364.716 167.701 358.138 164.48 351.059 163.446C343.98 162.411 336.755 163.614 330.394 166.887C324.033 170.16 318.854 175.339 315.58 181.7C314.147 181.451 312.695 181.324 311.24 181.32C307.159 181.315 303.138 182.304 299.524 184.202C295.911 186.099 292.813 188.848 290.5 192.21C287.862 190.289 284.744 189.137 281.49 188.88C278.237 188.623 274.977 189.272 272.07 190.755C269.163 192.238 266.724 194.497 265.022 197.281C263.321 200.066 262.424 203.267 262.43 206.53C262.429 207.722 262.546 208.911 262.78 210.08H405.81Z" fill="white" stroke="#A1A1A1" stroke-miterlimit="10"/>
<path d="M194.63 178.29C194.791 177.477 194.872 176.649 194.87 175.82C194.868 173.679 194.307 171.575 193.241 169.718C192.176 167.86 190.644 166.313 188.797 165.23C186.95 164.147 184.852 163.565 182.711 163.542C180.57 163.519 178.46 164.056 176.59 165.1C175.672 160.222 173.253 155.752 169.672 152.315C166.09 148.878 161.525 146.646 156.613 145.929C151.701 145.212 146.688 146.046 142.274 148.316C137.86 150.586 134.264 154.178 131.99 158.59C130.999 158.418 129.996 158.331 128.99 158.33C126.159 158.328 123.37 159.015 120.864 160.33C118.357 161.645 116.207 163.55 114.6 165.88C112.767 164.551 110.603 163.754 108.346 163.578C106.089 163.402 103.828 163.853 101.811 164.881C99.7941 165.91 98.101 167.476 96.9185 169.406C95.736 171.336 95.1101 173.556 95.11 175.82C95.1114 176.65 95.1952 177.477 95.36 178.29H194.63Z" fill="white" stroke="#A1A1A1" stroke-miterlimit="10"/>
<path d="M232.72 361.12C232.905 360.202 232.999 359.267 233 358.33C233 355.903 232.365 353.519 231.159 351.413C229.953 349.307 228.217 347.553 226.124 346.325C224.031 345.097 221.653 344.438 219.226 344.412C216.8 344.387 214.408 344.996 212.29 346.18C211.249 340.654 208.509 335.59 204.452 331.696C200.395 327.802 195.223 325.273 189.658 324.46C184.094 323.647 178.415 324.592 173.413 327.163C168.412 329.734 164.338 333.802 161.76 338.8C160.631 338.603 159.486 338.503 158.34 338.5C155.126 338.494 151.96 339.271 149.113 340.762C146.266 342.253 143.825 344.415 142 347.06C139.925 345.572 137.479 344.684 134.932 344.494C132.385 344.305 129.836 344.82 127.563 345.985C125.29 347.149 123.381 348.917 122.047 351.095C120.713 353.273 120.005 355.776 120 358.33C119.996 359.267 120.09 360.202 120.28 361.12H232.72Z" fill="white" stroke="#A1A1A1" stroke-miterlimit="10"/>
<path d="M320.17 245.64C320.279 245.114 320.333 244.577 320.33 244.04C320.317 241.936 319.475 239.921 317.987 238.433C316.499 236.945 314.484 236.103 312.38 236.09C311.022 236.082 309.685 236.427 308.5 237.09C307.907 233.933 306.343 231.04 304.026 228.815C301.709 226.59 298.755 225.144 295.576 224.679C292.398 224.215 289.153 224.754 286.296 226.223C283.439 227.691 281.112 230.015 279.64 232.87C278.996 232.758 278.344 232.701 277.69 232.7C275.856 232.696 274.049 233.139 272.425 233.991C270.801 234.843 269.409 236.079 268.37 237.59C267.186 236.729 265.788 236.212 264.329 236.096C262.87 235.98 261.407 236.27 260.102 236.933C258.797 237.597 257.701 238.608 256.935 239.855C256.169 241.102 255.762 242.536 255.76 244C255.762 244.537 255.816 245.073 255.92 245.6L320.17 245.64Z" fill="white" stroke="#A1A1A1" stroke-miterlimit="10"/>
<path d="M276.85 392.34C276.954 391.813 277.008 391.277 277.01 390.74C276.997 388.636 276.155 386.621 274.667 385.133C273.179 383.645 271.164 382.803 269.06 382.79C267.702 382.782 266.365 383.127 265.18 383.79C264.589 380.63 263.026 377.733 260.708 375.506C258.39 373.278 255.434 371.83 252.253 371.365C249.072 370.9 245.825 371.441 242.966 372.912C240.108 374.383 237.78 376.711 236.31 379.57C234.169 379.19 231.963 379.435 229.958 380.276C227.952 381.116 226.231 382.517 225 384.31C223.816 383.447 222.416 382.929 220.955 382.814C219.495 382.698 218.03 382.99 216.725 383.656C215.42 384.322 214.325 385.336 213.562 386.587C212.798 387.837 212.396 389.275 212.4 390.74C212.397 391.277 212.451 391.814 212.56 392.34H276.85Z" fill="white" stroke="#A1A1A1" stroke-miterlimit="10"/>
<path d="M381 217.35C381.72 219.863 382.387 222.4 383 224.96C411.79 239.58 428.2 254.86 425.68 267.62C422.28 284.86 385.16 293.24 332.21 291.62V307.62C404.14 311.8 455.55 302.19 459.87 280.31C463.5 261.66 432.29 238.34 381 217.35Z" fill="white" stroke="#263238" stroke-miterlimit="10"/>
<path d="M217.41 260L163.7 220.38L165.79 217.32L160.07 221.16L159.94 225.6L161.8 223.73L188.92 244.73C189.176 245.437 189.585 246.078 190.117 246.609C190.649 247.14 191.292 247.546 192 247.8C193.106 248.111 194.192 248.492 195.25 248.94L212.25 263.45L217.41 260Z" fill="white" stroke="#263238" stroke-linecap="round" stroke-linejoin="round"/>
<path d="M328.22 283.1L313.82 271.82L311.14 271.55L324.11 283.78L328.22 283.1Z" fill="white" stroke="#263238" stroke-linecap="round" stroke-linejoin="round"/>
<path d="M341.64 285.5L231.87 258.39C231.87 258.39 220.87 254.98 211.87 260.64C202.87 266.3 200.43 267.07 196.29 274.19C194.26 277.74 193.699 281.942 194.727 285.9C195.754 289.858 198.289 293.257 201.79 295.37C209.64 300.14 262.45 309.82 262.45 309.82C262.45 309.82 275.45 316.82 281.14 318.22C286.83 319.62 298.14 321.08 300.48 320.79C302.063 320.563 303.624 320.208 305.15 319.73L317.76 322.46L313.09 324.77C313.09 324.77 302.09 321.36 297.88 330.2C293.67 339.04 300.78 344.42 307.61 346.26C312.126 347.596 316.955 347.416 321.36 345.75C323.5 344.93 326.08 345.69 327.98 342.34C329.88 338.99 330.74 337.18 329.78 335.75L327.86 332.89C329.022 332.77 330.162 332.494 331.25 332.07C333.002 331.075 334.648 329.902 336.16 328.57L354.7 335C354.7 335 359.97 339.76 363.36 340.18C366.75 340.6 367.69 339.32 367.69 339.32L393.84 349.16C393.84 349.16 396.28 351.88 398.43 352.3C399.842 352.544 401.289 352.493 402.68 352.15L451.17 369.15L451.61 371.96L455.03 365.96L450.88 366.88L328.08 320.33C328.08 320.33 350.83 314.39 362.7 307.06L414.49 323.72L413.86 321.86L366.36 303.56C366.36 303.56 368.21 299.22 366.87 297.21C365.67 295.629 364.291 294.193 362.76 292.93L391 241.4L384.79 240.18L347.06 284.34C347.06 284.34 345.93 285.11 341.64 285.5Z" fill="white"/>
<path opacity="0.2" d="M336.12 328.57L354.7 335C354.7 335 359.97 339.76 363.36 340.18C366.75 340.6 367.69 339.32 367.69 339.32L393.84 349.16C393.84 349.16 396.28 351.88 398.43 352.3C399.842 352.544 401.289 352.493 402.68 352.15L451.17 369.15L451.61 371.96L455.03 365.96L450.88 366.88L328.08 320.33C328.08 320.33 350.83 314.39 362.7 307.06L414.49 323.72L413.86 321.86L366.36 303.56C366.36 303.56 368.21 299.22 366.87 297.21C365.67 295.629 364.291 294.193 362.76 292.93L391 241.4L386.87 240.59C384.63 243.59 357.87 279.7 353.75 285.7C349.41 291.97 339.75 291.49 339.75 291.49C339.75 291.49 264.54 274.61 253.45 273.17C242.36 271.73 228.86 269.31 219.7 279.43C210.54 289.55 211.02 298.24 211.02 298.24L211.88 298.94C229.64 303.82 262.37 309.82 262.37 309.82C262.37 309.82 275.37 316.82 281.06 318.22C286.75 319.62 298.06 321.08 300.4 320.79C301.983 320.563 303.544 320.208 305.07 319.73L317.68 322.46L313.01 324.77C313.01 324.77 302.01 321.36 297.8 330.2C293.59 339.04 300.7 344.42 307.53 346.26C312.046 347.596 316.875 347.416 321.28 345.75C323.42 344.93 326 345.69 327.9 342.34C329.8 338.99 330.66 337.18 329.7 335.75L327.78 332.89C328.942 332.77 330.082 332.494 331.17 332.07C332.936 331.077 334.595 329.904 336.12 328.57V328.57Z" fill="black" stroke="#263238" stroke-width="0.75" stroke-linecap="round" stroke-linejoin="round"/>
<path d="M341.64 285.5L231.87 258.39C231.87 258.39 220.87 254.98 211.87 260.64C202.87 266.3 200.43 267.07 196.29 274.19C194.26 277.74 193.699 281.942 194.727 285.9C195.754 289.858 198.289 293.257 201.79 295.37C209.64 300.14 262.45 309.82 262.45 309.82C262.45 309.82 275.45 316.82 281.14 318.22C286.83 319.62 298.14 321.08 300.48 320.79C302.063 320.563 303.624 320.208 305.15 319.73L317.76 322.46L313.09 324.77C313.09 324.77 302.09 321.36 297.88 330.2C293.67 339.04 300.78 344.42 307.61 346.26C312.126 347.596 316.955 347.416 321.36 345.75C323.5 344.93 326.08 345.69 327.98 342.34C329.88 338.99 330.74 337.18 329.78 335.75L327.86 332.89C329.022 332.77 330.162 332.494 331.25 332.07C333.002 331.075 334.648 329.902 336.16 328.57L354.7 335C354.7 335 359.97 339.76 363.36 340.18C366.75 340.6 367.69 339.32 367.69 339.32L393.84 349.16C393.84 349.16 396.28 351.88 398.43 352.3C399.842 352.544 401.289 352.493 402.68 352.15L451.17 369.15L451.61 371.96L455.03 365.96L450.88 366.88L328.08 320.33C328.08 320.33 350.83 314.39 362.7 307.06L414.49 323.72L413.86 321.86L366.36 303.56C366.36 303.56 368.21 299.22 366.87 297.21C365.67 295.629 364.291 294.193 362.76 292.93L391 241.4L384.79 240.18L347.06 284.34C347.06 284.34 345.93 285.11 341.64 285.5Z" stroke="#263238" stroke-linecap="round" stroke-linejoin="round"/>
<path d="M222.98 271.5L214.75 268.01L210.81 272.19L211.25 272.5L220.56 276.39L222.98 271.5Z" fill="#263238"/>
<path d="M208.28 263.92L207.52 263.29C205.74 264.39 204.3 265.29 203.06 266.2L203.91 267.14L208.28 263.92Z" fill="#263238"/>
<path d="M213.7 267.56L209.17 264.6L204.64 267.94L204.74 268.04L209.91 271.58L213.7 267.56Z" fill="#263238"/>
<path d="M227.37 273.07L224 271.87L221.54 276.84L226.7 279.89L227.93 280.21L227.37 273.07Z" fill="#263238"/>
<path d="M232 276.71C231.61 273.93 231.16 274.43 231.16 274.43L228.46 273.43L229.01 280.43L231.81 281.17C232.18 279.712 232.244 278.194 232 276.71V276.71Z" fill="#263238"/>
<path d="M313.792 335.869C314.709 331.22 311.938 326.758 307.604 325.903C303.269 325.048 299.011 328.123 298.094 332.772C297.177 337.421 299.947 341.883 304.282 342.738C308.617 343.594 312.874 340.518 313.792 335.869Z" fill="#263238" stroke="#263238" stroke-linecap="round" stroke-linejoin="round"/>
<path d="M362.7 307L357.7 305.47C357.674 304.955 357.773 304.441 357.989 303.972C358.205 303.504 358.531 303.095 358.94 302.78C360.27 301.98 366.37 303.5 366.37 303.5" fill="white"/>
<path d="M362.7 307L357.7 305.47C357.674 304.955 357.773 304.441 357.989 303.972C358.205 303.504 358.531 303.095 358.94 302.78C360.27 301.98 366.37 303.5 366.37 303.5" stroke="#263238" stroke-linecap="round" stroke-linejoin="round"/>
<path d="M304.33 320C299.078 318.526 293.91 316.767 288.85 314.73C285.04 313.15 286.85 309.4 286.85 309.4L272.28 305.4C272.28 305.4 247.38 301 222.51 295C205.93 291 197.82 286.11 194.25 283.29C194.461 285.749 195.251 288.123 196.554 290.219C197.858 292.315 199.638 294.073 201.75 295.35C209.6 300.12 262.41 309.8 262.41 309.8C262.41 309.8 275.41 316.8 281.1 318.2C286.79 319.6 298.1 321.06 300.44 320.77C301.753 320.604 303.053 320.347 304.33 320V320Z" fill="#263238" stroke="#263238" stroke-width="0.75" stroke-linecap="round" stroke-linejoin="round"/>
<path d="M337.15 317.63L309.9 312.26L312.07 313.78L328.26 320.24C329.06 320 332.52 319.09 337.15 317.63Z" fill="#263238" stroke="#263238" stroke-width="0.75" stroke-linecap="round" stroke-linejoin="round"/>
<path d="M350.21 290.78L345.02 289.9" stroke="#263238" stroke-miterlimit="10"/>
<path d="M362.76 292.89L353.81 291.38" stroke="#263238" stroke-miterlimit="10"/>
</svg>
