<svg xmlns="http://www.w3.org/2000/svg" xmlns:xlink="http://www.w3.org/1999/xlink" viewBox="0,0,256,256" width="48px" height="48px" fill-rule="nonzero"><g fill="none" fill-rule="nonzero" stroke="none" stroke-width="1" stroke-linecap="butt" stroke-linejoin="miter" stroke-miterlimit="10" stroke-dasharray="" stroke-dashoffset="0" font-family="none" font-weight="none" font-size="none" text-anchor="none" style="mix-blend-mode: normal"><g transform="scale(5.33333,5.33333)"><path d="M44,24c0,11.044 -8.956,20 -20,20c-11.044,0 -20,-8.956 -20,-20c0,-11.044 8.956,-20 20,-20c11.044,0 20,8.956 20,20z" fill="#2e79d6"></path><path d="M40,24c0,8.838 -7.162,16 -16,16c-8.838,0 -16,-7.162 -16,-16c0,-8.838 7.163,-16 16,-16c8.837,0 16,7.163 16,16z" fill="#eeeeee"></path><path d="M22.582,15.885h-1.109v-4.527l-1.055,0.023v-0.801l2.164,-0.387z" fill="#212121"></path><path d="M27.582,15.885h-3.359v-0.754l1.551,-1.965c0.206,-0.292 0.354,-0.547 0.443,-0.763c0.09,-0.217 0.135,-0.414 0.135,-0.591c0,-0.243 -0.047,-0.438 -0.141,-0.588c-0.094,-0.148 -0.229,-0.223 -0.406,-0.223c-0.182,0 -0.322,0.09 -0.42,0.271c-0.098,0.181 -0.146,0.417 -0.146,0.71h-1.082l-0.008,-0.02c-0.01,-0.516 0.135,-0.952 0.438,-1.311c0.303,-0.359 0.708,-0.537 1.219,-0.537c0.521,0 0.927,0.151 1.219,0.453c0.292,0.302 0.438,0.714 0.438,1.234c0,0.349 -0.082,0.672 -0.244,0.969c-0.162,0.297 -0.434,0.685 -0.814,1.164l-0.742,1.063h1.922v0.888z" fill="#212121"></path><path d="M11.789,25.039c0.224,0 0.41,-0.106 0.557,-0.32c0.147,-0.214 0.221,-0.513 0.221,-0.898v-0.219c-0.104,0.151 -0.226,0.266 -0.365,0.344c-0.139,0.078 -0.287,0.117 -0.443,0.117c-0.445,0 -0.795,-0.175 -1.049,-0.525c-0.254,-0.35 -0.381,-0.827 -0.381,-1.432c0,-0.57 0.157,-1.052 0.471,-1.443c0.314,-0.391 0.71,-0.588 1.189,-0.588c0.498,0 0.902,0.201 1.215,0.604c0.313,0.403 0.469,0.963 0.469,1.682v1.391c0,0.667 -0.178,1.196 -0.533,1.588c-0.355,0.392 -0.805,0.588 -1.35,0.588c-0.162,0 -0.332,-0.021 -0.512,-0.063c-0.18,-0.042 -0.346,-0.102 -0.5,-0.18l0.125,-0.828c0.143,0.063 0.285,0.108 0.424,0.139c0.139,0.031 0.293,0.043 0.462,0.043zM11.969,23.227c0.13,0 0.246,-0.032 0.346,-0.096c0.1,-0.064 0.184,-0.15 0.252,-0.26v-0.648c0,-0.411 -0.052,-0.723 -0.156,-0.934c-0.104,-0.211 -0.241,-0.312 -0.41,-0.301h-0.023c-0.159,-0.011 -0.289,0.097 -0.391,0.322c-0.102,0.225 -0.152,0.49 -0.152,0.795c0,0.341 0.045,0.613 0.137,0.816c0.092,0.203 0.222,0.306 0.397,0.306z" fill="#212121"></path><path d="M35.391,22.512h0.555c0.198,0 0.345,-0.07 0.441,-0.211c0.096,-0.142 0.145,-0.339 0.145,-0.592c0,-0.222 -0.048,-0.402 -0.145,-0.54c-0.096,-0.139 -0.234,-0.208 -0.414,-0.208c-0.146,0 -0.271,0.062 -0.377,0.184c-0.105,0.123 -0.158,0.284 -0.158,0.482h-1.074l-0.008,-0.023c-0.013,-0.45 0.135,-0.817 0.443,-1.103c0.309,-0.284 0.689,-0.427 1.143,-0.427c0.516,0 0.927,0.142 1.234,0.424c0.307,0.282 0.461,0.682 0.461,1.197c0,0.258 -0.066,0.497 -0.199,0.717c-0.133,0.22 -0.315,0.392 -0.547,0.514c0.266,0.109 0.469,0.279 0.609,0.51c0.14,0.231 0.211,0.505 0.211,0.822c0,0.519 -0.166,0.926 -0.498,1.223c-0.332,0.297 -0.757,0.445 -1.275,0.445c-0.456,0 -0.848,-0.14 -1.176,-0.42c-0.328,-0.28 -0.486,-0.681 -0.473,-1.201l0.008,-0.023h1.078c0,0.219 0.057,0.399 0.172,0.543c0.115,0.144 0.256,0.215 0.426,0.215c0.193,0 0.346,-0.072 0.459,-0.217c0.113,-0.145 0.17,-0.338 0.17,-0.58c0,-0.302 -0.055,-0.522 -0.166,-0.662c-0.111,-0.14 -0.274,-0.209 -0.49,-0.209h-0.555z" fill="#212121"></path><path d="M24.291,32.074c0.185,0 0.354,0.021 0.506,0.061c0.152,0.04 0.308,0.101 0.467,0.182l-0.188,0.84c-0.138,-0.06 -0.265,-0.104 -0.381,-0.135c-0.116,-0.031 -0.25,-0.045 -0.4,-0.045c-0.271,0 -0.488,0.123 -0.65,0.369c-0.162,0.246 -0.24,0.595 -0.232,1.045l0.016,0.016c0.102,-0.117 0.232,-0.21 0.391,-0.277c0.159,-0.067 0.336,-0.102 0.531,-0.102c0.43,0 0.765,0.181 1.006,0.543c0.241,0.362 0.361,0.825 0.361,1.391c0,0.567 -0.155,1.037 -0.465,1.408c-0.31,0.371 -0.709,0.557 -1.199,0.557c-0.526,0 -0.953,-0.203 -1.279,-0.609c-0.326,-0.406 -0.49,-0.964 -0.49,-1.672v-1.172c0,-0.737 0.188,-1.321 0.564,-1.752c0.376,-0.431 0.856,-0.648 1.442,-0.648zM24.049,34.902c-0.154,0 -0.285,0.026 -0.395,0.08c-0.109,0.053 -0.197,0.128 -0.262,0.224v0.449c0,0.444 0.059,0.786 0.178,1.025c0.119,0.239 0.279,0.358 0.482,0.358c0.167,0 0.301,-0.105 0.402,-0.317c0.101,-0.212 0.152,-0.466 0.152,-0.763c0,-0.314 -0.052,-0.569 -0.156,-0.765c-0.103,-0.193 -0.237,-0.291 -0.401,-0.291z" fill="#212121"></path><path d="M27,24c0,-0.4 -0.082,-0.781 -0.224,-1.13l6.888,-6.123l-1.328,-1.494l-6.897,6.13c-0.429,-0.236 -0.915,-0.383 -1.439,-0.383c-1.656,0 -3,1.344 -3,3c0,1.656 1.344,3 3,3c0.282,0 0.55,-0.052 0.809,-0.125l5.125,5.125l1.73,-1.73l-4.971,-4.971c0.191,-0.395 0.307,-0.832 0.307,-1.299z" fill="#212121"></path><g fill="#2e79d6"><path d="M25,24c0,0.551 -0.449,1 -1,1c-0.551,0 -1,-0.449 -1,-1c0,-0.551 0.449,-1 1,-1c0.551,0 1,0.449 1,1"></path></g></g></g></svg>