<svg xmlns="http://www.w3.org/2000/svg" xmlns:xlink="http://www.w3.org/1999/xlink" viewBox="0,0,256,256" width="48px" height="48px" fill-rule="nonzero"><g fill="none" fill-rule="nonzero" stroke="none" stroke-width="1" stroke-linecap="butt" stroke-linejoin="miter" stroke-miterlimit="10" stroke-dasharray="" stroke-dashoffset="0" font-family="none" font-weight="none" font-size="none" text-anchor="none" style="mix-blend-mode: normal"><g transform="scale(5.33333,5.33333)"><path d="M40,45h-32v-42h22l10,10z" fill="#ff3522"></path><path d="M38.5,14h-9.5v-9.5z" fill="#fbe9e7"></path><path d="M16.075,39c-0.398,0 -0.697,-0.1 -0.996,-0.2c-1.096,-0.6 -1.195,-1.5 -0.996,-2.2c0.398,-1.2 2.59,-2.7 5.478,-4v0c1.295,-2.4 2.291,-4.9 2.889,-7c-0.996,-1.9 -1.45,-3.7 -1.45,-5c0,-0.7 0.155,-1.3 0.454,-1.8c0.398,-0.5 0.996,-0.8 1.793,-0.8c0.896,0 1.594,0.5 1.893,1.4c0.498,1.2 0.199,3.4 -0.498,5.9c0.996,1.7 2.191,3.3 3.486,4.5c1.893,-0.4 3.586,-0.6 4.682,-0.4c1.891,0.3 2.19,1.6 2.19,2.1c0,2.1 -2.191,2.1 -2.988,2.1c-1.494,0 -2.988,-0.6 -4.283,-1.7v0c-2.391,0.6 -4.781,1.4 -6.674,2.3c-0.996,1.7 -1.992,3.1 -2.889,3.9c-0.896,0.7 -1.593,0.9 -2.091,0.9zM23.844,27.8c-0.398,1.2 -0.996,2.5 -1.494,3.7c1.195,-0.4 2.391,-0.8 3.586,-1.1c-0.797,-0.8 -1.494,-1.7 -2.092,-2.6z" fill="#ffffff"></path><path d="M40,45v-16h-5v7h-5v2.7l5.04,6.3z" fill="#ff8a65"></path><path d="M48,38h-16l8,10z" fill="#191e20"></path><path d="M37,31h6v12h-6z" fill="#191e20"></path></g></g></svg>