<?xml version="1.0" encoding="UTF-8"?>
<svg xmlns="http://www.w3.org/2000/svg" xmlns:xlink="http://www.w3.org/1999/xlink" viewBox="0 0 58 58" width="58px" height="58px">
<g id="surface77837339">
<path style=" stroke:none;fill-rule:nonzero;fill:rgb(67.058825%,80.000001%,76.078433%);fill-opacity:1;" d="M 42.039062 27.617188 C 39.988281 25.320312 37.324219 24.332031 34.292969 24.332031 L 29.4375 24.332031 L 26.445312 13.25 C 26.210938 12.390625 25.433594 11.796875 24.546875 11.796875 L 21.136719 11.796875 C 20.050781 11.796875 19.167969 12.675781 19.167969 13.761719 L 19.167969 24.332031 L 10.8125 24.332031 L 7.566406 18.460938 C 7.21875 17.835938 6.5625 17.449219 5.84375 17.449219 L 3.40625 17.449219 C 2.160156 17.449219 1.226562 18.597656 1.484375 19.820312 L 3.847656 31 C 4.324219 33.269531 6.332031 34.898438 8.65625 34.898438 L 19.167969 34.898438 L 19.167969 46.203125 C 19.167969 47.289062 20.050781 48.167969 21.136719 48.167969 L 24.546875 48.167969 C 25.433594 48.167969 26.210938 47.574219 26.445312 46.714844 C 27.335938 43.417969 29.449219 35.597656 29.636719 34.898438 L 38.757812 34.898438 C 42.523438 34.898438 44.558594 30.4375 42.039062 27.617188 Z M 42.039062 27.617188 "/>
<path style=" stroke:none;fill-rule:nonzero;fill:rgb(76.078433%,87.058824%,83.92157%);fill-opacity:1;" d="M 25.113281 14.988281 L 24.328125 14.988281 C 23.242188 14.988281 22.363281 15.867188 22.363281 16.953125 L 22.363281 24.332031 L 19.167969 24.332031 L 19.167969 13.761719 C 19.167969 12.675781 20.050781 11.796875 21.136719 11.796875 L 24.546875 11.796875 C 25.433594 11.796875 26.210938 12.390625 26.445312 13.25 C 26.679688 14.125 26.019531 14.988281 25.113281 14.988281 Z M 25.113281 14.988281 "/>
<path style=" stroke:none;fill-rule:nonzero;fill:rgb(90.196079%,90.196079%,90.196079%);fill-opacity:1;" d="M 54.3125 7.238281 L 54.3125 7.863281 C 54.3125 12.207031 50.792969 15.726562 46.449219 15.726562 L 40.757812 15.726562 C 37.929688 15.726562 35.5625 13.484375 35.515625 10.65625 C 35.464844 7.714844 37.859375 5.378906 40.710938 5.40625 C 41.027344 5.410156 41.3125 5.214844 41.417969 4.917969 C 42.359375 2.257812 44.945312 0.375 47.953125 0.496094 C 51.527344 0.640625 54.3125 3.664062 54.3125 7.238281 Z M 54.3125 7.238281 "/>
<path style=" stroke:none;fill-rule:nonzero;fill:rgb(90.196079%,90.196079%,90.196079%);fill-opacity:1;" d="M 58 52.4375 C 57.953125 55.265625 55.585938 57.507812 52.753906 57.507812 L 47.0625 57.507812 C 42.71875 57.507812 39.199219 53.988281 39.199219 49.644531 L 39.199219 49.019531 C 39.199219 45.441406 41.984375 42.421875 45.558594 42.277344 C 48.566406 42.15625 51.152344 44.035156 52.09375 46.695312 C 52.199219 46.996094 52.484375 47.1875 52.804688 47.1875 C 55.65625 47.160156 58.050781 49.496094 58 52.4375 Z M 58 52.4375 "/>
<path style=" stroke:none;fill-rule:nonzero;fill:rgb(56.078434%,67.058825%,63.921571%);fill-opacity:1;" d="M 19.167969 34.898438 L 17.203125 34.898438 L 17.203125 30.964844 C 17.203125 30.421875 17.644531 29.984375 18.1875 29.984375 C 18.730469 29.984375 19.167969 30.421875 19.167969 30.964844 Z M 19.167969 34.898438 "/>
<path style=" stroke:none;fill-rule:nonzero;fill:rgb(56.078434%,67.058825%,63.921571%);fill-opacity:1;" d="M 32.609375 31.445312 L 31.675781 34.898438 L 29.636719 34.898438 L 30.710938 30.929688 C 30.851562 30.40625 31.394531 30.097656 31.914062 30.238281 C 32.441406 30.378906 32.75 30.921875 32.609375 31.445312 Z M 32.609375 31.445312 "/>
<path style=" stroke:none;fill-rule:nonzero;fill:rgb(90.196079%,90.196079%,90.196079%);fill-opacity:1;" d="M 43.136719 30.105469 L 36.375 30.105469 C 35.828125 30.105469 35.390625 29.664062 35.390625 29.121094 C 35.390625 28.578125 35.828125 28.140625 36.375 28.140625 L 42.445312 28.140625 C 42.855469 28.757812 43.078125 29.429688 43.136719 30.105469 Z M 43.136719 30.105469 "/>
<path style=" stroke:none;fill-rule:nonzero;fill:rgb(90.196079%,90.196079%,90.196079%);fill-opacity:1;" d="M 8.847656 10.074219 L 0.984375 10.074219 C 0.441406 10.074219 0 9.636719 0 9.09375 C 0 8.550781 0.441406 8.109375 0.984375 8.109375 L 8.847656 8.109375 C 9.390625 8.109375 9.832031 8.550781 9.832031 9.09375 C 9.832031 9.636719 9.390625 10.074219 8.847656 10.074219 Z M 8.847656 10.074219 "/>
<path style=" stroke:none;fill-rule:nonzero;fill:rgb(90.196079%,90.196079%,90.196079%);fill-opacity:1;" d="M 14.007812 10.074219 L 13.269531 10.074219 C 12.726562 10.074219 12.289062 9.636719 12.289062 9.09375 C 12.289062 8.550781 12.726562 8.109375 13.269531 8.109375 L 14.007812 8.109375 C 14.550781 8.109375 14.992188 8.550781 14.992188 9.09375 C 14.992188 9.636719 14.550781 10.074219 14.007812 10.074219 Z M 14.007812 10.074219 "/>
<path style=" stroke:none;fill-rule:nonzero;fill:rgb(90.196079%,90.196079%,90.196079%);fill-opacity:1;" d="M 10.078125 43.007812 L 0.984375 43.007812 C 0.441406 43.007812 0 42.566406 0 42.023438 C 0 41.480469 0.441406 41.042969 0.984375 41.042969 L 10.078125 41.042969 C 10.621094 41.042969 11.058594 41.480469 11.058594 42.023438 C 11.058594 42.566406 10.621094 43.007812 10.078125 43.007812 Z M 10.078125 43.007812 "/>
<path style=" stroke:none;fill-rule:nonzero;fill:rgb(90.196079%,90.196079%,90.196079%);fill-opacity:1;" d="M 13.148438 48.90625 L 12.042969 48.90625 C 11.5 48.90625 11.058594 48.464844 11.058594 47.921875 C 11.058594 47.378906 11.5 46.941406 12.042969 46.941406 L 13.148438 46.941406 C 13.691406 46.941406 14.132812 47.378906 14.132812 47.921875 C 14.132812 48.464844 13.691406 48.90625 13.148438 48.90625 Z M 13.148438 48.90625 "/>
<path style=" stroke:none;fill-rule:nonzero;fill:rgb(90.196079%,90.196079%,90.196079%);fill-opacity:1;" d="M 48.773438 4.703125 C 47.128906 5.402344 45.757812 6.761719 45.105469 8.605469 C 45 8.902344 44.714844 9.097656 44.394531 9.09375 C 42.304688 9.074219 40.539062 10.300781 39.707031 12.019531 C 38.789062 13.910156 35.953125 13.519531 35.589844 11.449219 C 35.03125 8.257812 37.53125 5.378906 40.710938 5.40625 C 41.027344 5.410156 41.3125 5.21875 41.417969 4.917969 C 42.359375 2.257812 44.945312 0.375 47.953125 0.496094 C 50.382812 0.597656 50.894531 3.804688 48.773438 4.703125 Z M 48.773438 4.703125 "/>
<path style=" stroke:none;fill-rule:nonzero;fill:rgb(90.196079%,90.196079%,90.196079%);fill-opacity:1;" d="M 49.429688 43.328125 C 50.578125 44.070312 50.167969 45.835938 48.808594 45.988281 C 45.613281 46.351562 42.890625 49.085938 42.886719 52.730469 C 42.882812 54.234375 40.882812 54.730469 40.160156 53.414062 C 39.121094 51.515625 39.199219 49.894531 39.199219 49.019531 C 39.199219 43.695312 45.007812 40.472656 49.429688 43.328125 Z M 49.429688 43.328125 "/>
<path style=" stroke:none;fill-rule:nonzero;fill:rgb(56.078434%,67.058825%,63.921571%);fill-opacity:1;" d="M 29.4375 24.332031 L 19.167969 24.332031 L 19.167969 21.503906 L 28.675781 21.503906 Z M 29.4375 24.332031 "/>
<path style=" stroke:none;fill-rule:nonzero;fill:rgb(76.078433%,87.058824%,83.92157%);fill-opacity:1;" d="M 34.914062 24.34375 C 36.335938 24.410156 36.273438 26.542969 34.851562 26.542969 L 16.464844 26.542969 C 12.789062 26.542969 9.59375 28.597656 7.964844 31.625 C 7.003906 33.410156 4.28125 33.0625 3.847656 31 L 1.484375 19.820312 C 1.226562 18.597656 2.160156 17.449219 3.40625 17.449219 L 5.84375 17.449219 C 6.5625 17.449219 7.21875 17.835938 7.566406 18.460938 L 10.8125 24.332031 C 36.164062 24.332031 34.46875 24.324219 34.914062 24.34375 Z M 34.914062 24.34375 "/>
</g>
</svg>
